<svg width="172" height="115" viewBox="0 0 172 115" fill="none" xmlns="http://www.w3.org/2000/svg">
<path d="M90.2403 48.1049C90.2403 52.5201 87.1049 55.0614 81.5806 55.0614H74.3243V41.1484H81.6104C87.1049 41.1484 90.2403 43.6641 90.2403 48.1049ZM104.424 64.1741C104.424 66.3047 106.574 67.6909 109.949 67.6909C114.249 67.6909 117.474 65.3549 117.474 62.0692V60.0926L110.456 60.4777C106.485 60.7087 104.424 61.9665 104.424 64.1741ZM172 12.3214V102.679C172 109.481 165.58 115 157.667 115H14.3333C6.42014 115 0 109.481 0 102.679V12.3214C0 5.51897 6.42014 0 14.3333 0H157.667C165.58 0 172 5.51897 172 12.3214ZM38.1625 42.6629C40.6708 42.8426 43.1792 41.5848 44.7618 39.9933C46.3146 38.3504 47.3299 36.1429 47.0611 33.9096C44.8514 33.9866 42.1042 35.1674 40.5215 36.8103C39.0882 38.2221 37.8639 40.5067 38.1625 42.6629ZM56.2583 61.7868C56.1986 61.7355 50.4056 59.8359 50.3458 54.0859C50.2861 49.2857 54.9146 46.9754 55.1236 46.8471C52.4958 43.51 48.4347 43.1507 47.0312 43.0737C43.3882 42.894 40.2826 44.8449 38.5507 44.8449C36.7889 44.8449 34.1611 43.1507 31.2944 43.202C27.5618 43.2533 24.0681 45.0759 22.1868 47.9766C18.275 53.7779 21.1715 62.3516 24.9639 67.0748C26.8153 69.4107 29.0549 71.9777 31.9812 71.875C34.7583 71.7723 35.8632 70.3348 39.2076 70.3348C42.5819 70.3348 43.5375 71.875 46.4639 71.8493C49.5097 71.798 51.391 69.5134 53.2722 67.1775C55.3326 64.5078 56.1986 61.9409 56.2583 61.7868ZM96.6903 48.0792C96.6903 41.2511 91.166 36.5792 83.2826 36.5792H67.9937V71.5926H74.3243V59.6306H83.0736C91.0764 59.6306 96.6903 54.9074 96.6903 48.0792ZM123.565 54.1629C123.565 49.106 118.847 45.846 111.621 45.846C104.902 45.846 99.9451 49.1574 99.766 53.6752H105.469C105.947 51.519 108.276 50.1071 111.442 50.1071C115.324 50.1071 117.474 51.6473 117.474 54.5223V56.4475L109.59 56.8583C102.244 57.2433 98.2729 59.8359 98.2729 64.3281C98.2729 68.8717 102.364 71.875 108.247 71.875C112.218 71.875 115.891 70.1551 117.563 67.4085H117.683V71.6183H123.535V54.1629H123.565ZM154.083 46.1797H147.663L140.228 66.8694H140.108L132.673 46.1797H126.014L136.734 71.6696L136.167 73.2098C135.211 75.8281 133.628 76.8549 130.822 76.8549C130.314 76.8549 129.358 76.8036 128.97 76.7779V80.9877C129.328 81.0904 130.911 81.1161 131.389 81.1161C137.57 81.1161 140.467 79.0882 143.005 72.9531L154.083 46.1797Z" fill="#998ACB"/>
</svg>
