<?xml version="1.0" standalone="no"?>
<!DOCTYPE svg PUBLIC "-//W3C//DTD SVG 20010904//EN"
 "http://www.w3.org/TR/2001/REC-SVG-20010904/DTD/svg10.dtd">
<svg version="1.0" xmlns="http://www.w3.org/2000/svg"
 width="1280.000000pt" height="1280.000000pt" viewBox="0 0 1280.000000 1280.000000"
 preserveAspectRatio="xMidYMid meet">
<g transform="translate(0.000000,1280.000000) scale(0.100000,-0.100000)"
fill="#000000" stroke="none">
<path d="M410 12612 c0 -170 -2 -191 -18 -205 -16 -15 -46 -17 -205 -17 l-187
0 0 -40 0 -40 188 0 c170 0 191 -2 205 -18 15 -17 17 -59 17 -394 0 -350 -1
-376 -18 -391 -16 -15 -46 -17 -205 -17 l-187 0 0 -40 0 -40 188 0 c170 0 191
-2 205 -18 15 -17 17 -59 17 -394 0 -350 -1 -376 -18 -391 -16 -15 -46 -17
-205 -17 l-187 0 0 -40 0 -40 188 0 c170 0 191 -2 205 -18 15 -17 17 -59 17
-394 0 -350 -1 -376 -18 -391 -16 -15 -46 -17 -205 -17 l-187 0 0 -40 0 -40
183 0 c149 0 187 -3 205 -16 l22 -15 0 -378 c0 -353 -1 -379 -18 -394 -16 -15
-46 -17 -205 -17 l-187 0 0 -40 0 -40 183 0 c149 0 187 -3 205 -16 l22 -15 0
-378 c0 -353 -1 -379 -18 -394 -16 -15 -46 -17 -205 -17 l-187 0 0 -40 0 -40
183 0 c149 0 187 -3 205 -16 l22 -15 0 -378 c0 -353 -1 -379 -18 -394 -16 -15
-46 -17 -205 -17 l-187 0 0 -40 0 -40 183 0 c149 0 187 -3 205 -16 l22 -15 0
-378 c0 -353 -1 -379 -18 -394 -16 -15 -46 -17 -205 -17 l-187 0 0 -40 0 -40
183 0 c149 0 187 -3 205 -16 l22 -15 0 -378 c0 -353 -1 -379 -18 -394 -16 -15
-46 -17 -205 -17 l-187 0 0 -40 0 -40 183 0 c149 0 187 -3 205 -16 l22 -15 0
-378 c0 -353 -1 -379 -18 -394 -16 -15 -46 -17 -205 -17 l-187 0 0 -40 0 -40
185 0 c172 0 186 -1 205 -20 19 -19 20 -33 20 -393 0 -350 -1 -375 -18 -390
-16 -15 -46 -17 -205 -17 l-187 0 0 -40 0 -40 185 0 c172 0 186 -1 205 -20 19
-19 20 -33 20 -393 0 -350 -1 -375 -18 -390 -16 -15 -46 -17 -205 -17 l-187 0
0 -40 0 -40 185 0 c172 0 186 -1 205 -20 19 -19 20 -33 20 -393 0 -350 -1
-375 -18 -390 -16 -15 -46 -17 -205 -17 l-187 0 0 -40 0 -40 185 0 c172 0 186
-1 205 -20 19 -19 20 -33 20 -393 0 -350 -1 -375 -18 -390 -16 -15 -46 -17
-205 -17 l-187 0 0 -40 0 -40 185 0 c172 0 186 -1 205 -20 19 -19 20 -33 20
-305 l0 -285 40 0 40 0 0 285 c0 272 1 286 20 305 19 19 33 20 390 20 357 0
371 -1 390 -20 19 -19 20 -33 20 -305 l0 -285 40 0 40 0 0 285 c0 272 1 286
20 305 19 19 33 20 390 20 357 0 371 -1 390 -20 19 -19 20 -33 20 -305 l0
-285 40 0 40 0 0 285 c0 272 1 286 20 305 19 19 33 20 388 20 316 0 371 -2
390 -16 22 -15 22 -17 22 -305 l0 -289 40 0 40 0 0 285 c0 272 1 286 20 305
19 19 33 20 388 20 316 0 371 -2 390 -16 22 -15 22 -17 22 -305 l0 -289 40 0
40 0 0 285 c0 272 1 286 20 305 19 19 33 20 388 20 316 0 371 -2 390 -16 22
-15 22 -17 22 -305 l0 -289 40 0 40 0 0 285 c0 272 1 286 20 305 19 19 33 20
388 20 316 0 371 -2 390 -16 22 -15 22 -17 22 -305 l0 -289 40 0 40 0 0 285
c0 272 1 286 20 305 19 19 33 20 388 20 316 0 371 -2 390 -16 22 -15 22 -17
22 -305 l0 -289 40 0 40 0 0 285 c0 272 1 286 20 305 19 19 33 20 388 20 316
0 371 -2 390 -16 22 -15 22 -17 22 -305 l0 -289 40 0 40 0 0 285 c0 272 1 286
20 305 19 19 33 20 388 20 316 0 371 -2 390 -16 22 -15 22 -17 22 -305 l0
-289 40 0 40 0 0 285 c0 272 1 286 20 305 19 19 33 20 388 20 316 0 371 -2
390 -16 22 -15 22 -17 22 -305 l0 -289 40 0 40 0 0 285 c0 272 1 286 20 305
19 19 33 20 388 20 316 0 371 -2 390 -16 22 -15 22 -17 22 -305 l0 -289 40 0
40 0 0 285 c0 272 1 286 20 305 19 19 33 20 388 20 316 0 371 -2 390 -16 22
-15 22 -17 22 -305 l0 -289 40 0 40 0 0 285 c0 272 1 286 20 305 19 19 33 20
388 20 316 0 371 -2 390 -16 22 -15 22 -17 22 -305 l0 -289 40 0 40 0 0 285
c0 272 1 286 20 305 19 19 33 20 305 20 l285 0 0 40 0 40 -289 0 c-288 0 -290
0 -305 22 -14 19 -16 74 -16 390 0 355 1 369 20 388 19 19 33 20 305 20 l285
0 0 40 0 40 -289 0 c-288 0 -290 0 -305 22 -14 19 -16 74 -16 390 0 355 1 369
20 388 19 19 33 20 305 20 l285 0 0 40 0 40 -289 0 c-288 0 -290 0 -305 22
-14 19 -16 74 -16 390 0 355 1 369 20 388 19 19 33 20 305 20 l285 0 0 40 0
40 -289 0 c-288 0 -290 0 -305 22 -14 19 -16 74 -16 390 0 355 1 369 20 388
19 19 33 20 305 20 l285 0 0 40 0 40 -289 0 c-288 0 -290 0 -305 22 -14 19
-16 74 -16 390 0 355 1 369 20 388 19 19 33 20 305 20 l285 0 0 40 0 40 -289
0 c-288 0 -290 0 -305 22 -14 19 -16 74 -16 390 0 355 1 369 20 388 19 19 33
20 305 20 l285 0 0 40 0 40 -289 0 c-288 0 -290 0 -305 22 -14 19 -16 74 -16
390 0 355 1 369 20 388 19 19 33 20 305 20 l285 0 0 40 0 40 -289 0 c-288 0
-290 0 -305 22 -14 19 -16 74 -16 390 0 355 1 369 20 388 19 19 33 20 305 20
l285 0 0 40 0 40 -289 0 c-288 0 -290 0 -305 22 -14 19 -16 74 -16 390 0 355
1 369 20 388 19 19 33 20 305 20 l285 0 0 40 0 40 -289 0 c-288 0 -290 0 -305
22 -14 19 -16 74 -16 390 0 355 1 369 20 388 19 19 33 20 305 20 l285 0 0 40
0 40 -289 0 c-288 0 -290 0 -305 22 -14 19 -16 74 -16 390 0 355 1 369 20 388
19 19 33 20 305 20 l285 0 0 40 0 40 -285 0 c-272 0 -286 1 -305 20 -19 19
-20 33 -20 390 0 357 1 371 20 390 19 19 33 20 305 20 l285 0 0 40 0 40 -285
0 c-272 0 -286 1 -305 20 -19 19 -20 33 -20 390 0 357 1 371 20 390 19 19 33
20 305 20 l285 0 0 40 0 40 -285 0 c-272 0 -286 1 -305 20 -19 19 -20 33 -20
205 l0 185 -40 0 -40 0 0 -188 c0 -170 -2 -191 -18 -205 -17 -15 -58 -17 -390
-17 -359 0 -373 1 -392 20 -19 19 -20 33 -20 205 l0 185 -40 0 -40 0 0 -188
c0 -170 -2 -191 -18 -205 -17 -15 -58 -17 -390 -17 -359 0 -373 1 -392 20 -19
19 -20 33 -20 205 l0 185 -40 0 -40 0 0 -188 c0 -170 -2 -191 -18 -205 -17
-15 -58 -17 -390 -17 -359 0 -373 1 -392 20 -19 19 -20 33 -20 205 l0 185 -40
0 -40 0 0 -188 c0 -170 -2 -191 -18 -205 -17 -15 -58 -17 -390 -17 -359 0
-373 1 -392 20 -19 19 -20 33 -20 205 l0 185 -40 0 -40 0 0 -188 c0 -170 -2
-191 -18 -205 -17 -15 -58 -17 -390 -17 -359 0 -373 1 -392 20 -19 19 -20 33
-20 205 l0 185 -40 0 -40 0 0 -188 c0 -170 -2 -191 -18 -205 -17 -15 -59 -17
-395 -17 l-376 0 -15 22 c-13 18 -16 56 -16 205 l0 183 -40 0 -40 0 0 -188 c0
-170 -2 -191 -18 -205 -17 -15 -59 -17 -395 -17 l-376 0 -15 22 c-13 18 -16
56 -16 205 l0 183 -40 0 -40 0 0 -188 c0 -170 -2 -191 -18 -205 -17 -15 -59
-17 -395 -17 l-376 0 -15 22 c-13 18 -16 56 -16 205 l0 183 -40 0 -40 0 0
-188 c0 -170 -2 -191 -18 -205 -17 -15 -59 -17 -395 -17 l-376 0 -15 22 c-13
18 -16 56 -16 205 l0 183 -40 0 -40 0 0 -188 c0 -170 -2 -191 -18 -205 -17
-15 -59 -17 -395 -17 l-376 0 -15 22 c-13 18 -16 56 -16 205 l0 183 -40 0 -40
0 0 -188 c0 -170 -2 -191 -18 -205 -17 -15 -59 -17 -394 -17 -350 0 -376 1
-391 18 -15 16 -17 46 -17 205 l0 187 -40 0 -40 0 0 -188 c0 -170 -2 -191 -18
-205 -17 -15 -59 -17 -394 -17 -350 0 -376 1 -391 18 -15 16 -17 46 -17 205
l0 187 -40 0 -40 0 0 -188 c0 -170 -2 -191 -18 -205 -17 -15 -59 -17 -394 -17
-350 0 -376 1 -391 18 -15 16 -17 46 -17 205 l0 187 -40 0 -40 0 0 -188z m882
-319 c17 -15 18 -41 18 -391 0 -335 -2 -377 -17 -394 -15 -17 -41 -18 -391
-18 -335 0 -377 2 -394 17 -17 15 -18 41 -18 391 0 335 2 377 17 394 15 17 41
18 391 18 335 0 377 -2 394 -17z m900 0 c17 -15 18 -41 18 -391 0 -335 -2
-377 -17 -394 -15 -17 -41 -18 -391 -18 -335 0 -377 2 -394 17 -17 15 -18 41
-18 391 0 335 2 377 17 394 15 17 41 18 391 18 335 0 377 -2 394 -17z m900 0
c17 -15 18 -41 18 -391 0 -335 -2 -377 -17 -394 -15 -17 -41 -18 -391 -18
-335 0 -377 2 -394 17 -17 15 -18 41 -18 391 0 335 2 377 17 394 15 17 41 18
391 18 335 0 377 -2 394 -17z m900 0 c17 -15 18 -41 18 -391 0 -335 -2 -377
-17 -394 -15 -17 -41 -18 -394 -18 l-378 0 -15 22 c-14 19 -16 73 -16 388 0
315 2 369 16 388 l15 22 376 0 c336 0 378 -2 395 -17z m900 0 c17 -15 18 -41
18 -391 0 -335 -2 -377 -17 -394 -15 -17 -41 -18 -394 -18 l-378 0 -15 22
c-14 19 -16 73 -16 388 0 315 2 369 16 388 l15 22 376 0 c336 0 378 -2 395
-17z m900 0 c17 -15 18 -41 18 -391 0 -335 -2 -377 -17 -394 -15 -17 -41 -18
-394 -18 l-378 0 -15 22 c-14 19 -16 73 -16 388 0 315 2 369 16 388 l15 22
376 0 c336 0 378 -2 395 -17z m900 0 c17 -15 18 -41 18 -391 0 -335 -2 -377
-17 -394 -15 -17 -41 -18 -394 -18 l-378 0 -15 22 c-14 19 -16 74 -16 390 0
355 1 369 20 388 19 19 33 20 392 20 332 0 373 -2 390 -17z m900 0 c17 -15 18
-41 18 -391 0 -335 -2 -377 -17 -394 -15 -17 -41 -18 -394 -18 l-378 0 -15 22
c-14 19 -16 74 -16 390 0 355 1 369 20 388 19 19 33 20 392 20 332 0 373 -2
390 -17z m900 0 c17 -15 18 -41 18 -391 0 -335 -2 -377 -17 -394 -15 -17 -41
-18 -394 -18 l-378 0 -15 22 c-14 19 -16 74 -16 390 0 355 1 369 20 388 19 19
33 20 392 20 332 0 373 -2 390 -17z m900 0 c17 -15 18 -41 18 -391 0 -335 -2
-377 -17 -394 -15 -17 -41 -18 -394 -18 l-378 0 -15 22 c-14 19 -16 74 -16
390 0 355 1 369 20 388 19 19 33 20 392 20 332 0 373 -2 390 -17z m900 0 c17
-15 18 -41 18 -391 0 -335 -2 -377 -17 -394 -15 -17 -41 -18 -394 -18 l-378 0
-15 22 c-14 19 -16 74 -16 390 0 355 1 369 20 388 19 19 33 20 392 20 332 0
373 -2 390 -17z m900 0 c17 -15 18 -41 18 -391 0 -335 -2 -377 -17 -394 -15
-17 -41 -18 -394 -18 l-378 0 -15 22 c-14 19 -16 74 -16 390 0 355 1 369 20
388 19 19 33 20 392 20 332 0 373 -2 390 -17z m900 0 c17 -15 18 -41 18 -394
0 -330 -2 -380 -16 -393 -13 -14 -63 -16 -390 -16 -361 0 -375 1 -394 20 -19
19 -20 33 -20 390 0 357 1 371 20 390 19 19 33 20 392 20 332 0 373 -2 390
-17z m-10800 -900 c17 -15 18 -41 18 -391 0 -335 -2 -377 -17 -394 -15 -17
-41 -18 -391 -18 -335 0 -377 2 -394 17 -17 15 -18 41 -18 391 0 335 2 377 17
394 15 17 41 18 391 18 335 0 377 -2 394 -17z m900 0 c17 -15 18 -41 18 -391
0 -335 -2 -377 -17 -394 -15 -17 -41 -18 -391 -18 -335 0 -377 2 -394 17 -17
15 -18 41 -18 391 0 335 2 377 17 394 15 17 41 18 391 18 335 0 377 -2 394
-17z m900 0 c17 -15 18 -41 18 -391 0 -335 -2 -377 -17 -394 -15 -17 -41 -18
-391 -18 -335 0 -377 2 -394 17 -17 15 -18 40 -18 387 0 320 2 375 16 394 l15
22 376 0 c336 0 378 -2 395 -17z m900 0 c17 -15 18 -41 18 -391 0 -335 -2
-377 -17 -394 -15 -17 -41 -18 -391 -18 -335 0 -377 2 -394 17 -17 15 -18 40
-18 390 0 360 1 374 20 393 19 19 33 20 392 20 332 0 373 -2 390 -17z m900 0
c17 -15 18 -41 18 -391 0 -335 -2 -377 -17 -394 -15 -17 -41 -18 -394 -18
l-378 0 -15 22 c-14 19 -16 74 -16 390 0 355 1 369 20 388 19 19 33 20 392 20
332 0 373 -2 390 -17z m900 0 c17 -15 18 -41 18 -391 0 -335 -2 -377 -17 -394
-15 -17 -41 -18 -394 -18 l-378 0 -15 22 c-14 19 -16 74 -16 390 0 355 1 369
20 388 19 19 33 20 392 20 332 0 373 -2 390 -17z m900 0 c17 -15 18 -41 18
-391 0 -335 -2 -377 -17 -394 -15 -17 -41 -18 -394 -18 l-378 0 -15 22 c-14
19 -16 74 -16 390 0 355 1 369 20 388 19 19 33 20 392 20 332 0 373 -2 390
-17z m900 0 c17 -15 18 -41 18 -391 0 -335 -2 -377 -17 -394 -15 -17 -41 -18
-394 -18 l-378 0 -15 22 c-14 19 -16 74 -16 390 0 355 1 369 20 388 19 19 33
20 392 20 332 0 373 -2 390 -17z m900 0 c17 -15 18 -41 18 -391 0 -335 -2
-377 -17 -394 -15 -17 -41 -18 -394 -18 l-378 0 -15 22 c-14 19 -16 74 -16
390 0 355 1 369 20 388 19 19 33 20 392 20 332 0 373 -2 390 -17z m900 0 c17
-15 18 -41 18 -391 0 -335 -2 -377 -17 -394 -15 -17 -41 -18 -394 -18 l-378 0
-15 22 c-14 19 -16 74 -16 390 0 355 1 369 20 388 19 19 33 20 392 20 332 0
373 -2 390 -17z m900 0 c17 -15 18 -41 18 -391 0 -335 -2 -377 -17 -394 -15
-17 -41 -18 -394 -18 l-378 0 -15 22 c-14 19 -16 74 -16 390 0 355 1 369 20
388 19 19 33 20 392 20 332 0 373 -2 390 -17z m900 0 c17 -15 18 -41 18 -394
0 -330 -2 -380 -16 -393 -13 -14 -63 -16 -394 -16 l-379 0 -15 22 c-14 19 -16
74 -16 390 0 355 1 369 20 388 19 19 33 20 392 20 332 0 373 -2 390 -17z m900
0 c17 -15 18 -41 18 -394 0 -330 -2 -380 -16 -393 -13 -14 -63 -16 -394 -16
l-379 0 -15 22 c-14 19 -16 74 -16 390 0 355 1 369 20 388 19 19 33 20 392 20
332 0 373 -2 390 -17z m-10800 -900 c17 -15 18 -41 18 -391 0 -335 -2 -377
-17 -394 -15 -17 -41 -18 -391 -18 -335 0 -377 2 -394 17 -17 15 -18 41 -18
391 0 335 2 377 17 394 15 17 41 18 391 18 335 0 377 -2 394 -17z m900 0 c17
-15 18 -41 18 -391 0 -335 -2 -377 -17 -394 -15 -17 -41 -18 -391 -18 -335 0
-377 2 -394 17 -17 15 -18 41 -18 394 l0 378 22 15 c19 14 74 16 392 16 330 0
371 -2 388 -17z m900 0 c17 -15 18 -41 18 -391 0 -335 -2 -377 -17 -394 -15
-17 -41 -18 -391 -18 -335 0 -377 2 -394 17 -17 15 -18 40 -18 390 0 360 1
374 20 393 19 19 33 20 392 20 332 0 373 -2 390 -17z m900 0 c17 -15 18 -41
18 -391 0 -335 -2 -377 -17 -394 -15 -17 -41 -18 -394 -18 l-378 0 -15 22
c-14 19 -16 74 -16 390 0 355 1 369 20 388 19 19 33 20 392 20 332 0 373 -2
390 -17z m900 0 c17 -15 18 -41 18 -391 0 -335 -2 -377 -17 -394 -15 -17 -41
-18 -394 -18 l-378 0 -15 22 c-14 19 -16 74 -16 390 0 355 1 369 20 388 19 19
33 20 392 20 332 0 373 -2 390 -17z m900 0 c17 -15 18 -41 18 -391 0 -335 -2
-377 -17 -394 -15 -17 -41 -18 -394 -18 l-378 0 -15 22 c-14 19 -16 74 -16
390 0 355 1 369 20 388 19 19 33 20 392 20 332 0 373 -2 390 -17z m900 0 c17
-15 18 -41 18 -391 0 -335 -2 -377 -17 -394 -15 -17 -41 -18 -394 -18 l-378 0
-15 22 c-14 19 -16 74 -16 390 0 355 1 369 20 388 19 19 33 20 392 20 332 0
373 -2 390 -17z m900 0 c17 -15 18 -41 18 -391 0 -335 -2 -377 -17 -394 -15
-17 -41 -18 -394 -18 l-378 0 -15 22 c-14 19 -16 74 -16 390 0 355 1 369 20
388 19 19 33 20 392 20 332 0 373 -2 390 -17z m900 0 c17 -15 18 -41 18 -391
0 -335 -2 -377 -17 -394 -15 -17 -41 -18 -394 -18 l-378 0 -15 22 c-14 19 -16
74 -16 390 0 355 1 369 20 388 19 19 33 20 392 20 332 0 373 -2 390 -17z m900
0 c17 -15 18 -41 18 -391 0 -335 -2 -377 -17 -394 -15 -17 -41 -18 -394 -18
l-378 0 -15 22 c-14 19 -16 74 -16 390 0 355 1 369 20 388 19 19 33 20 392 20
332 0 373 -2 390 -17z m900 0 c17 -15 18 -41 18 -394 0 -330 -2 -380 -16 -393
-13 -14 -63 -16 -394 -16 l-379 0 -15 22 c-14 19 -16 74 -16 390 0 355 1 369
20 388 19 19 33 20 392 20 332 0 373 -2 390 -17z m900 0 c17 -15 18 -41 18
-394 0 -330 -2 -380 -16 -393 -13 -14 -63 -16 -394 -16 l-379 0 -15 22 c-14
19 -16 74 -16 390 0 355 1 369 20 388 19 19 33 20 392 20 332 0 373 -2 390
-17z m900 0 c17 -15 18 -41 18 -394 0 -330 -2 -380 -16 -393 -13 -14 -63 -16
-394 -16 l-379 0 -15 22 c-14 19 -16 74 -16 390 0 355 1 369 20 388 19 19 33
20 392 20 332 0 373 -2 390 -17z m-10804 -899 l22 -15 0 -376 c0 -336 -2 -378
-17 -395 -15 -17 -41 -18 -391 -18 -335 0 -377 2 -394 17 -17 15 -18 41 -18
394 l0 378 22 15 c19 14 73 16 388 16 315 0 369 -2 388 -16z m904 -1 c17 -15
18 -41 18 -391 0 -335 -2 -377 -17 -394 -15 -17 -41 -18 -391 -18 -335 0 -377
2 -394 17 -17 15 -18 40 -18 390 0 360 1 374 20 393 19 19 33 20 392 20 332 0
373 -2 390 -17z m900 0 c17 -15 18 -41 18 -391 0 -335 -2 -377 -17 -394 -15
-17 -41 -18 -391 -18 -335 0 -377 2 -394 17 -17 15 -18 40 -18 390 0 360 1
374 20 393 19 19 33 20 392 20 332 0 373 -2 390 -17z m900 0 c17 -15 18 -41
18 -391 0 -335 -2 -377 -17 -394 -15 -17 -41 -18 -391 -18 -335 0 -377 2 -394
17 -17 15 -18 40 -18 390 0 360 1 374 20 393 19 19 33 20 392 20 332 0 373 -2
390 -17z m900 0 c17 -15 18 -41 18 -391 0 -335 -2 -377 -17 -394 -15 -17 -41
-18 -394 -18 l-378 0 -15 22 c-14 19 -16 74 -16 390 0 355 1 369 20 388 19 19
33 20 392 20 332 0 373 -2 390 -17z m900 0 c17 -15 18 -41 18 -391 0 -335 -2
-377 -17 -394 -15 -17 -41 -18 -394 -18 l-378 0 -15 22 c-14 19 -16 74 -16
390 0 355 1 369 20 388 19 19 33 20 392 20 332 0 373 -2 390 -17z m900 0 c17
-15 18 -41 18 -391 0 -335 -2 -377 -17 -394 -15 -17 -41 -18 -394 -18 l-378 0
-15 22 c-14 19 -16 74 -16 390 0 355 1 369 20 388 19 19 33 20 392 20 332 0
373 -2 390 -17z m900 0 c17 -15 18 -41 18 -391 0 -335 -2 -377 -17 -394 -15
-17 -41 -18 -394 -18 l-378 0 -15 22 c-14 19 -16 74 -16 390 0 355 1 369 20
388 19 19 33 20 392 20 332 0 373 -2 390 -17z m900 0 c17 -15 18 -41 18 -391
0 -335 -2 -377 -17 -394 -15 -17 -41 -18 -394 -18 l-378 0 -15 22 c-14 19 -16
74 -16 390 0 355 1 369 20 388 19 19 33 20 392 20 332 0 373 -2 390 -17z m900
0 c17 -15 18 -41 18 -394 0 -330 -2 -380 -16 -393 -13 -14 -63 -16 -394 -16
l-379 0 -15 22 c-14 19 -16 74 -16 390 0 355 1 369 20 388 19 19 33 20 392 20
332 0 373 -2 390 -17z m900 0 c17 -15 18 -41 18 -394 0 -330 -2 -380 -16 -393
-13 -14 -63 -16 -394 -16 l-379 0 -15 22 c-14 19 -16 74 -16 390 0 355 1 369
20 388 19 19 33 20 392 20 332 0 373 -2 390 -17z m900 0 c17 -15 18 -41 18
-394 0 -330 -2 -380 -16 -393 -13 -14 -63 -16 -394 -16 l-379 0 -15 22 c-14
19 -16 74 -16 390 0 355 1 369 20 388 19 19 33 20 392 20 332 0 373 -2 390
-17z m900 0 c17 -15 18 -41 18 -394 0 -330 -2 -380 -16 -393 -13 -14 -63 -16
-394 -16 l-379 0 -15 22 c-14 19 -16 74 -16 390 0 355 1 369 20 388 19 19 33
20 392 20 332 0 373 -2 390 -17z m-10804 -899 l22 -15 0 -376 c0 -336 -2 -378
-17 -395 -15 -17 -41 -18 -391 -18 -335 0 -377 2 -394 17 -17 15 -18 41 -18
394 l0 378 22 15 c19 14 73 16 388 16 315 0 369 -2 388 -16z m900 0 l22 -15 0
-376 c0 -336 -2 -378 -17 -395 -15 -17 -41 -18 -391 -18 -335 0 -377 2 -394
17 -17 15 -18 40 -18 390 0 360 1 374 20 393 19 19 33 20 388 20 316 0 371 -2
390 -16z m900 0 l22 -15 0 -376 c0 -336 -2 -378 -17 -395 -15 -17 -41 -18
-391 -18 -335 0 -377 2 -394 17 -17 15 -18 40 -18 390 0 360 1 374 20 393 19
19 33 20 388 20 316 0 371 -2 390 -16z m900 0 l22 -15 0 -376 c0 -336 -2 -378
-17 -395 -15 -17 -41 -18 -391 -18 -335 0 -377 2 -394 17 -17 15 -18 40 -18
390 0 360 1 374 20 393 19 19 33 20 388 20 316 0 371 -2 390 -16z m900 0 l22
-15 0 -376 c0 -336 -2 -378 -17 -395 -15 -17 -41 -18 -394 -18 l-378 0 -15 22
c-14 19 -16 74 -16 390 0 355 1 369 20 388 19 19 33 20 388 20 316 0 371 -2
390 -16z m904 -1 c17 -15 18 -41 18 -391 0 -335 -2 -377 -17 -394 -15 -17 -41
-18 -394 -18 l-378 0 -15 22 c-14 19 -16 74 -16 390 0 355 1 369 20 388 19 19
33 20 392 20 332 0 373 -2 390 -17z m900 0 c17 -15 18 -41 18 -391 0 -335 -2
-377 -17 -394 -15 -17 -41 -18 -394 -18 l-378 0 -15 22 c-14 19 -16 74 -16
390 0 355 1 369 20 388 19 19 33 20 392 20 332 0 373 -2 390 -17z m900 0 c17
-15 18 -41 18 -391 0 -335 -2 -377 -17 -394 -15 -17 -41 -18 -394 -18 l-378 0
-15 22 c-14 19 -16 74 -16 390 0 355 1 369 20 388 19 19 33 20 392 20 332 0
373 -2 390 -17z m900 0 c17 -15 18 -41 18 -394 0 -330 -2 -380 -16 -393 -13
-14 -63 -16 -394 -16 l-379 0 -15 22 c-14 19 -16 74 -16 390 0 355 1 369 20
388 19 19 33 20 392 20 332 0 373 -2 390 -17z m900 0 c17 -15 18 -41 18 -394
0 -330 -2 -380 -16 -393 -13 -14 -63 -16 -394 -16 l-379 0 -15 22 c-14 19 -16
74 -16 390 0 355 1 369 20 388 19 19 33 20 392 20 332 0 373 -2 390 -17z m900
0 c17 -15 18 -41 18 -394 0 -330 -2 -380 -16 -393 -13 -14 -63 -16 -394 -16
l-379 0 -15 22 c-14 19 -16 74 -16 390 0 355 1 369 20 388 19 19 33 20 392 20
332 0 373 -2 390 -17z m900 0 c17 -15 18 -41 18 -394 0 -330 -2 -380 -16 -393
-13 -14 -63 -16 -394 -16 l-379 0 -15 22 c-14 19 -16 74 -16 390 0 355 1 369
20 388 19 19 33 20 392 20 332 0 373 -2 390 -17z m900 0 c17 -15 18 -41 18
-394 0 -330 -2 -380 -16 -393 -13 -14 -63 -16 -394 -16 l-379 0 -15 22 c-14
19 -16 74 -16 390 0 355 1 369 20 388 19 19 33 20 392 20 332 0 373 -2 390
-17z m-10804 -899 l22 -15 0 -376 c0 -336 -2 -378 -17 -395 -15 -17 -41 -18
-391 -18 -335 0 -377 2 -394 17 -17 15 -18 40 -18 390 0 360 1 374 20 393 19
19 33 20 388 20 316 0 371 -2 390 -16z m900 0 l22 -15 0 -376 c0 -336 -2 -378
-17 -395 -15 -17 -41 -18 -391 -18 -335 0 -377 2 -394 17 -17 15 -18 40 -18
390 0 360 1 374 20 393 19 19 33 20 388 20 316 0 371 -2 390 -16z m900 0 l22
-15 0 -376 c0 -336 -2 -378 -17 -395 -15 -17 -41 -18 -391 -18 -335 0 -377 2
-394 17 -17 15 -18 40 -18 390 0 360 1 374 20 393 19 19 33 20 388 20 316 0
371 -2 390 -16z m900 0 l22 -15 0 -376 c0 -336 -2 -378 -17 -395 -15 -17 -41
-18 -391 -18 -335 0 -377 2 -394 17 -17 15 -18 40 -18 390 0 360 1 374 20 393
19 19 33 20 388 20 316 0 371 -2 390 -16z m900 0 l22 -15 0 -376 c0 -336 -2
-378 -17 -395 -15 -17 -41 -18 -391 -18 -335 0 -377 2 -394 17 -17 15 -18 40
-18 390 0 360 1 374 20 393 19 19 33 20 388 20 316 0 371 -2 390 -16z m900 0
l22 -15 0 -376 c0 -336 -2 -378 -17 -395 -15 -17 -41 -18 -394 -18 l-378 0
-15 22 c-14 19 -16 74 -16 390 0 355 1 369 20 388 19 19 33 20 388 20 316 0
371 -2 390 -16z m900 0 l22 -15 0 -376 c0 -336 -2 -378 -17 -395 -15 -17 -41
-18 -394 -18 l-378 0 -15 22 c-14 19 -16 74 -16 390 0 355 1 369 20 388 19 19
33 20 388 20 316 0 371 -2 390 -16z m900 0 l22 -15 0 -379 c0 -331 -2 -381
-16 -394 -13 -14 -63 -16 -394 -16 l-379 0 -15 22 c-14 19 -16 74 -16 390 0
355 1 369 20 388 19 19 33 20 388 20 316 0 371 -2 390 -16z m904 -1 c17 -15
18 -41 18 -394 0 -330 -2 -380 -16 -393 -13 -14 -63 -16 -394 -16 l-379 0 -15
22 c-14 19 -16 74 -16 390 0 355 1 369 20 388 19 19 33 20 392 20 332 0 373
-2 390 -17z m900 0 c17 -15 18 -41 18 -394 0 -330 -2 -380 -16 -393 -13 -14
-63 -16 -394 -16 l-379 0 -15 22 c-14 19 -16 74 -16 390 0 355 1 369 20 388
19 19 33 20 392 20 332 0 373 -2 390 -17z m900 0 c17 -15 18 -41 18 -394 0
-330 -2 -380 -16 -393 -13 -14 -63 -16 -394 -16 l-379 0 -15 22 c-14 19 -16
74 -16 390 0 355 1 369 20 388 19 19 33 20 392 20 332 0 373 -2 390 -17z m900
0 c17 -15 18 -41 18 -394 0 -330 -2 -380 -16 -393 -13 -14 -63 -16 -394 -16
l-379 0 -15 22 c-14 19 -16 74 -16 390 0 355 1 369 20 388 19 19 33 20 392 20
332 0 373 -2 390 -17z m900 0 c17 -15 18 -41 18 -394 0 -330 -2 -380 -16 -393
-13 -14 -63 -16 -394 -16 l-379 0 -15 22 c-14 19 -16 74 -16 390 0 355 1 369
20 388 19 19 33 20 392 20 332 0 373 -2 390 -17z m-10804 -899 l22 -15 0 -376
c0 -336 -2 -378 -17 -395 -15 -17 -41 -18 -391 -18 -335 0 -377 2 -394 17 -17
15 -18 40 -18 390 0 360 1 374 20 393 19 19 33 20 388 20 316 0 371 -2 390
-16z m900 0 l22 -15 0 -376 c0 -336 -2 -378 -17 -395 -15 -17 -41 -18 -391
-18 -335 0 -377 2 -394 17 -17 15 -18 40 -18 390 0 360 1 374 20 393 19 19 33
20 388 20 316 0 371 -2 390 -16z m900 0 l22 -15 0 -376 c0 -336 -2 -378 -17
-395 -15 -17 -41 -18 -391 -18 -335 0 -377 2 -394 17 -17 15 -18 40 -18 390 0
360 1 374 20 393 19 19 33 20 388 20 316 0 371 -2 390 -16z m900 0 l22 -15 0
-376 c0 -336 -2 -378 -17 -395 -15 -17 -41 -18 -391 -18 -335 0 -377 2 -394
17 -17 15 -18 40 -18 390 0 360 1 374 20 393 19 19 33 20 388 20 316 0 371 -2
390 -16z m900 0 l22 -15 0 -376 c0 -336 -2 -378 -17 -395 -15 -17 -41 -18
-391 -18 -335 0 -377 2 -394 17 -17 15 -18 40 -18 390 0 360 1 374 20 393 19
19 33 20 388 20 316 0 371 -2 390 -16z m900 0 l22 -15 0 -379 c0 -331 -2 -381
-16 -394 -13 -14 -63 -16 -394 -16 l-379 0 -15 22 c-14 19 -16 74 -16 390 0
355 1 369 20 388 19 19 33 20 388 20 316 0 371 -2 390 -16z m900 0 l22 -15 0
-379 c0 -331 -2 -381 -16 -394 -13 -14 -63 -16 -394 -16 l-379 0 -15 22 c-14
19 -16 74 -16 390 0 355 1 369 20 388 19 19 33 20 388 20 316 0 371 -2 390
-16z m900 0 l22 -15 0 -379 c0 -331 -2 -381 -16 -394 -13 -14 -63 -16 -394
-16 l-379 0 -15 22 c-14 19 -16 74 -16 390 0 355 1 369 20 388 19 19 33 20
388 20 316 0 371 -2 390 -16z m900 0 l22 -15 0 -379 c0 -331 -2 -381 -16 -394
-13 -14 -63 -16 -394 -16 l-379 0 -15 22 c-14 19 -16 74 -16 390 0 355 1 369
20 388 19 19 33 20 388 20 316 0 371 -2 390 -16z m900 0 l22 -15 0 -379 c0
-331 -2 -381 -16 -394 -13 -14 -63 -16 -394 -16 l-379 0 -15 22 c-14 19 -16
74 -16 390 0 355 1 369 20 388 19 19 33 20 388 20 316 0 371 -2 390 -16z m900
0 l22 -15 0 -379 c0 -331 -2 -381 -16 -394 -13 -14 -63 -16 -394 -16 l-379 0
-15 22 c-14 19 -16 74 -16 390 0 355 1 369 20 388 19 19 33 20 388 20 316 0
371 -2 390 -16z m904 -1 c17 -15 18 -41 18 -394 0 -330 -2 -380 -16 -393 -13
-14 -63 -16 -394 -16 l-379 0 -15 22 c-14 19 -16 74 -16 390 0 355 1 369 20
388 19 19 33 20 392 20 332 0 373 -2 390 -17z m900 0 c17 -15 18 -41 18 -394
0 -330 -2 -380 -16 -393 -13 -14 -63 -16 -394 -16 l-379 0 -15 22 c-14 19 -16
74 -16 390 0 355 1 369 20 388 19 19 33 20 392 20 332 0 373 -2 390 -17z
m-10804 -899 l22 -15 0 -376 c0 -336 -2 -378 -17 -395 -15 -17 -41 -18 -391
-18 -335 0 -377 2 -394 17 -17 15 -18 40 -18 390 0 360 1 374 20 393 19 19 33
20 388 20 316 0 371 -2 390 -16z m900 0 l22 -15 0 -376 c0 -336 -2 -378 -17
-395 -15 -17 -41 -18 -391 -18 -335 0 -377 2 -394 17 -17 15 -18 40 -18 390 0
360 1 374 20 393 19 19 33 20 388 20 316 0 371 -2 390 -16z m900 0 l22 -15 0
-376 c0 -336 -2 -378 -17 -395 -15 -17 -41 -18 -391 -18 -335 0 -377 2 -394
17 -17 15 -18 40 -18 390 0 360 1 374 20 393 19 19 33 20 388 20 316 0 371 -2
390 -16z m900 0 l22 -15 0 -376 c0 -336 -2 -378 -17 -395 -15 -17 -41 -18
-391 -18 -335 0 -377 2 -394 17 -17 15 -18 40 -18 390 0 360 1 374 20 393 19
19 33 20 388 20 316 0 371 -2 390 -16z m900 0 l22 -15 0 -376 c0 -336 -2 -378
-17 -395 -15 -17 -41 -18 -391 -18 -335 0 -377 2 -394 17 -17 15 -18 40 -18
390 0 360 1 374 20 393 19 19 33 20 388 20 316 0 371 -2 390 -16z m900 0 l22
-15 0 -379 c0 -331 -2 -381 -16 -394 -13 -14 -63 -16 -394 -16 l-379 0 -15 22
c-14 19 -16 74 -16 390 0 355 1 369 20 388 19 19 33 20 388 20 316 0 371 -2
390 -16z m900 0 l22 -15 0 -379 c0 -331 -2 -381 -16 -394 -13 -14 -63 -16
-394 -16 l-379 0 -15 22 c-14 19 -16 74 -16 390 0 355 1 369 20 388 19 19 33
20 388 20 316 0 371 -2 390 -16z m900 0 l22 -15 0 -379 c0 -331 -2 -381 -16
-394 -13 -14 -63 -16 -394 -16 l-379 0 -15 22 c-14 19 -16 74 -16 390 0 355 1
369 20 388 19 19 33 20 388 20 316 0 371 -2 390 -16z m900 0 l22 -15 0 -379
c0 -331 -2 -381 -16 -394 -13 -14 -63 -16 -394 -16 l-379 0 -15 22 c-14 19
-16 74 -16 390 0 355 1 369 20 388 19 19 33 20 388 20 316 0 371 -2 390 -16z
m900 0 l22 -15 0 -379 c0 -331 -2 -381 -16 -394 -13 -14 -63 -16 -394 -16
l-379 0 -15 22 c-14 19 -16 74 -16 390 0 355 1 369 20 388 19 19 33 20 388 20
316 0 371 -2 390 -16z m900 0 l22 -15 0 -379 c0 -331 -2 -381 -16 -394 -13
-14 -63 -16 -394 -16 l-379 0 -15 22 c-14 19 -16 74 -16 390 0 355 1 369 20
388 19 19 33 20 388 20 316 0 371 -2 390 -16z m900 0 l22 -15 0 -379 c0 -331
-2 -381 -16 -394 -13 -14 -63 -16 -394 -16 l-379 0 -15 22 c-14 19 -16 74 -16
390 0 355 1 369 20 388 19 19 33 20 388 20 316 0 371 -2 390 -16z m900 0 l22
-15 0 -379 c0 -331 -2 -381 -16 -394 -13 -14 -63 -16 -394 -16 l-379 0 -15 22
c-14 19 -16 74 -16 390 0 355 1 369 20 388 19 19 33 20 388 20 316 0 371 -2
390 -16z m-10800 -900 l22 -15 0 -376 c0 -336 -2 -378 -17 -395 -15 -17 -41
-18 -391 -18 -335 0 -377 2 -394 17 -17 15 -18 40 -18 390 0 360 1 374 20 393
19 19 33 20 388 20 316 0 371 -2 390 -16z m900 0 l22 -15 0 -376 c0 -336 -2
-378 -17 -395 -15 -17 -41 -18 -391 -18 -335 0 -377 2 -394 17 -17 15 -18 40
-18 390 0 360 1 374 20 393 19 19 33 20 388 20 316 0 371 -2 390 -16z m900 0
l22 -15 0 -376 c0 -336 -2 -378 -17 -395 -15 -17 -41 -18 -391 -18 -335 0
-377 2 -394 17 -17 15 -18 40 -18 390 0 360 1 374 20 393 19 19 33 20 388 20
316 0 371 -2 390 -16z m900 0 l22 -15 0 -376 c0 -336 -2 -378 -17 -395 -15
-17 -41 -18 -391 -18 -335 0 -377 2 -394 17 -17 15 -18 40 -18 390 0 360 1
374 20 393 19 19 33 20 388 20 316 0 371 -2 390 -16z m900 0 l22 -15 0 -379
c0 -331 -2 -381 -16 -394 -13 -14 -63 -16 -391 -16 -336 0 -378 2 -395 17 -17
15 -18 40 -18 390 0 360 1 374 20 393 19 19 33 20 388 20 316 0 371 -2 390
-16z m900 0 l22 -15 0 -379 c0 -331 -2 -381 -16 -394 -13 -14 -63 -16 -391
-16 -336 0 -378 2 -395 17 -17 15 -18 40 -18 390 0 360 1 374 20 393 19 19 33
20 388 20 316 0 371 -2 390 -16z m900 0 l22 -15 0 -379 c0 -331 -2 -381 -16
-394 -13 -14 -63 -16 -394 -16 l-379 0 -15 22 c-14 19 -16 74 -16 390 0 355 1
369 20 388 19 19 33 20 388 20 316 0 371 -2 390 -16z m900 0 l22 -15 0 -379
c0 -331 -2 -381 -16 -394 -13 -14 -63 -16 -394 -16 l-379 0 -15 22 c-14 19
-16 74 -16 390 0 355 1 369 20 388 19 19 33 20 388 20 316 0 371 -2 390 -16z
m900 0 l22 -15 0 -379 c0 -331 -2 -381 -16 -394 -13 -14 -63 -16 -394 -16
l-379 0 -15 22 c-14 19 -16 74 -16 390 0 355 1 369 20 388 19 19 33 20 388 20
316 0 371 -2 390 -16z m900 0 l22 -15 0 -379 c0 -331 -2 -381 -16 -394 -13
-14 -63 -16 -394 -16 l-379 0 -15 22 c-14 19 -16 74 -16 390 0 355 1 369 20
388 19 19 33 20 388 20 316 0 371 -2 390 -16z m900 0 l22 -15 0 -379 c0 -331
-2 -381 -16 -394 -13 -14 -63 -16 -394 -16 l-379 0 -15 22 c-14 19 -16 74 -16
390 0 355 1 369 20 388 19 19 33 20 388 20 316 0 371 -2 390 -16z m900 0 l22
-15 0 -379 c0 -331 -2 -381 -16 -394 -13 -14 -63 -16 -394 -16 l-379 0 -15 22
c-14 19 -16 74 -16 390 0 355 1 369 20 388 19 19 33 20 388 20 316 0 371 -2
390 -16z m900 0 l22 -15 0 -379 c0 -331 -2 -381 -16 -394 -13 -14 -63 -16
-394 -16 l-379 0 -15 22 c-14 19 -16 74 -16 390 0 355 1 369 20 388 19 19 33
20 388 20 316 0 371 -2 390 -16z m-10800 -900 l22 -15 0 -376 c0 -336 -2 -378
-17 -395 -15 -17 -41 -18 -391 -18 -335 0 -377 2 -394 17 -17 15 -18 40 -18
390 0 360 1 374 20 393 19 19 33 20 388 20 316 0 371 -2 390 -16z m900 0 l22
-15 0 -376 c0 -336 -2 -378 -17 -395 -15 -17 -41 -18 -391 -18 -335 0 -377 2
-394 17 -17 15 -18 40 -18 390 0 360 1 374 20 393 19 19 33 20 388 20 316 0
371 -2 390 -16z m900 0 l22 -15 0 -376 c0 -336 -2 -378 -17 -395 -15 -17 -41
-18 -391 -18 -335 0 -377 2 -394 17 -17 15 -18 40 -18 390 0 360 1 374 20 393
19 19 33 20 388 20 316 0 371 -2 390 -16z m900 0 l22 -15 0 -379 c0 -331 -2
-381 -16 -394 -13 -14 -63 -16 -391 -16 -336 0 -378 2 -395 17 -17 15 -18 40
-18 390 0 360 1 374 20 393 19 19 33 20 388 20 316 0 371 -2 390 -16z m900 0
l22 -15 0 -379 c0 -331 -2 -381 -16 -394 -13 -14 -63 -16 -391 -16 -336 0
-378 2 -395 17 -17 15 -18 40 -18 390 0 360 1 374 20 393 19 19 33 20 388 20
316 0 371 -2 390 -16z m900 0 l22 -15 0 -379 c0 -331 -2 -381 -16 -394 -13
-14 -63 -16 -391 -16 -336 0 -378 2 -395 17 -17 15 -18 40 -18 390 0 360 1
374 20 393 19 19 33 20 388 20 316 0 371 -2 390 -16z m900 0 l22 -15 0 -379
c0 -331 -2 -381 -16 -394 -13 -14 -63 -16 -394 -16 l-379 0 -15 22 c-14 19
-16 74 -16 390 0 355 1 369 20 388 19 19 33 20 388 20 316 0 371 -2 390 -16z
m900 0 l22 -15 0 -379 c0 -331 -2 -381 -16 -394 -13 -14 -63 -16 -394 -16
l-379 0 -15 22 c-14 19 -16 74 -16 390 0 355 1 369 20 388 19 19 33 20 388 20
316 0 371 -2 390 -16z m900 0 l22 -15 0 -379 c0 -331 -2 -381 -16 -394 -13
-14 -63 -16 -394 -16 l-379 0 -15 22 c-14 19 -16 74 -16 390 0 355 1 369 20
388 19 19 33 20 388 20 316 0 371 -2 390 -16z m900 0 l22 -15 0 -379 c0 -331
-2 -381 -16 -394 -13 -14 -63 -16 -394 -16 l-379 0 -15 22 c-14 19 -16 74 -16
390 0 355 1 369 20 388 19 19 33 20 388 20 316 0 371 -2 390 -16z m900 0 l22
-15 0 -379 c0 -331 -2 -381 -16 -394 -13 -14 -63 -16 -394 -16 l-379 0 -15 22
c-14 19 -16 74 -16 390 0 355 1 369 20 388 19 19 33 20 388 20 316 0 371 -2
390 -16z m900 0 l22 -15 0 -379 c0 -331 -2 -381 -16 -394 -13 -14 -63 -16
-394 -16 l-379 0 -15 22 c-14 19 -16 74 -16 390 0 355 1 369 20 388 19 19 33
20 388 20 316 0 371 -2 390 -16z m900 0 l22 -15 0 -379 c0 -331 -2 -381 -16
-394 -13 -14 -63 -16 -394 -16 l-379 0 -15 22 c-14 19 -16 74 -16 390 0 355 1
369 20 388 19 19 33 20 388 20 316 0 371 -2 390 -16z m-10798 -904 c19 -19 20
-33 20 -392 0 -332 -2 -373 -17 -390 -15 -17 -41 -18 -391 -18 -335 0 -377 2
-394 17 -17 15 -18 40 -18 390 0 360 1 374 20 393 19 19 33 20 390 20 357 0
371 -1 390 -20z m898 4 l22 -15 0 -379 c0 -331 -2 -381 -16 -394 -13 -14 -63
-16 -391 -16 -336 0 -378 2 -395 17 -17 15 -18 40 -18 390 0 360 1 374 20 393
19 19 33 20 388 20 316 0 371 -2 390 -16z m900 0 l22 -15 0 -379 c0 -331 -2
-381 -16 -394 -13 -14 -63 -16 -391 -16 -336 0 -378 2 -395 17 -17 15 -18 40
-18 390 0 360 1 374 20 393 19 19 33 20 388 20 316 0 371 -2 390 -16z m900 0
l22 -15 0 -379 c0 -331 -2 -381 -16 -394 -13 -14 -63 -16 -391 -16 -336 0
-378 2 -395 17 -17 15 -18 40 -18 390 0 360 1 374 20 393 19 19 33 20 388 20
316 0 371 -2 390 -16z m900 0 l22 -15 0 -379 c0 -331 -2 -381 -16 -394 -13
-14 -63 -16 -391 -16 -336 0 -378 2 -395 17 -17 15 -18 40 -18 390 0 360 1
374 20 393 19 19 33 20 388 20 316 0 371 -2 390 -16z m900 0 l22 -15 0 -379
c0 -331 -2 -381 -16 -394 -13 -14 -63 -16 -391 -16 -336 0 -378 2 -395 17 -17
15 -18 40 -18 390 0 360 1 374 20 393 19 19 33 20 388 20 316 0 371 -2 390
-16z m900 0 l22 -15 0 -379 c0 -331 -2 -381 -16 -394 -13 -14 -63 -16 -391
-16 -336 0 -378 2 -395 17 -17 15 -18 40 -18 390 0 360 1 374 20 393 19 19 33
20 388 20 316 0 371 -2 390 -16z m900 0 l22 -15 0 -379 c0 -331 -2 -381 -16
-394 -13 -14 -63 -16 -394 -16 l-379 0 -15 22 c-14 19 -16 74 -16 390 0 355 1
369 20 388 19 19 33 20 388 20 316 0 371 -2 390 -16z m900 0 l22 -15 0 -379
c0 -331 -2 -381 -16 -394 -13 -14 -63 -16 -394 -16 l-379 0 -15 22 c-14 19
-16 74 -16 390 0 355 1 369 20 388 19 19 33 20 388 20 316 0 371 -2 390 -16z
m900 0 l22 -15 0 -379 c0 -331 -2 -381 -16 -394 -13 -14 -63 -16 -394 -16
l-379 0 -15 22 c-14 19 -16 74 -16 390 0 355 1 369 20 388 19 19 33 20 388 20
316 0 371 -2 390 -16z m900 0 l22 -15 0 -379 c0 -331 -2 -381 -16 -394 -13
-14 -63 -16 -394 -16 l-379 0 -15 22 c-14 19 -16 74 -16 390 0 355 1 369 20
388 19 19 33 20 388 20 316 0 371 -2 390 -16z m900 0 l22 -15 0 -379 c0 -331
-2 -381 -16 -394 -13 -14 -63 -16 -394 -16 l-379 0 -15 22 c-14 19 -16 74 -16
390 0 355 1 369 20 388 19 19 33 20 388 20 316 0 371 -2 390 -16z m900 0 l22
-15 0 -379 c0 -331 -2 -381 -16 -394 -13 -14 -63 -16 -394 -16 l-379 0 -15 22
c-14 19 -16 74 -16 390 0 355 1 369 20 388 19 19 33 20 388 20 316 0 371 -2
390 -16z m-10798 -904 c19 -19 20 -33 20 -392 0 -332 -2 -373 -17 -390 -15
-17 -41 -18 -391 -18 -335 0 -377 2 -394 17 -17 15 -18 40 -18 390 0 360 1
374 20 393 19 19 33 20 390 20 357 0 371 -1 390 -20z m898 4 l22 -15 0 -379
c0 -331 -2 -381 -16 -394 -13 -14 -63 -16 -391 -16 -336 0 -378 2 -395 17 -17
15 -18 40 -18 390 0 360 1 374 20 393 19 19 33 20 388 20 316 0 371 -2 390
-16z m900 0 l22 -15 0 -379 c0 -331 -2 -381 -16 -394 -13 -14 -63 -16 -391
-16 -336 0 -378 2 -395 17 -17 15 -18 40 -18 390 0 360 1 374 20 393 19 19 33
20 388 20 316 0 371 -2 390 -16z m900 0 l22 -15 0 -379 c0 -331 -2 -381 -16
-394 -13 -14 -63 -16 -391 -16 -336 0 -378 2 -395 17 -17 15 -18 40 -18 390 0
360 1 374 20 393 19 19 33 20 388 20 316 0 371 -2 390 -16z m900 0 l22 -15 0
-379 c0 -331 -2 -381 -16 -394 -13 -14 -63 -16 -391 -16 -336 0 -378 2 -395
17 -17 15 -18 40 -18 390 0 360 1 374 20 393 19 19 33 20 388 20 316 0 371 -2
390 -16z m900 0 l22 -15 0 -379 c0 -331 -2 -381 -16 -394 -13 -14 -63 -16
-391 -16 -336 0 -378 2 -395 17 -17 15 -18 40 -18 390 0 360 1 374 20 393 19
19 33 20 388 20 316 0 371 -2 390 -16z m900 0 l22 -15 0 -379 c0 -331 -2 -381
-16 -394 -13 -14 -63 -16 -391 -16 -336 0 -378 2 -395 17 -17 15 -18 40 -18
390 0 360 1 374 20 393 19 19 33 20 388 20 316 0 371 -2 390 -16z m900 0 l22
-15 0 -379 c0 -331 -2 -381 -16 -394 -13 -14 -63 -16 -394 -16 l-379 0 -15 22
c-14 19 -16 74 -16 390 0 355 1 369 20 388 19 19 33 20 388 20 316 0 371 -2
390 -16z m900 0 l22 -15 0 -379 c0 -331 -2 -381 -16 -394 -13 -14 -63 -16
-394 -16 l-379 0 -15 22 c-14 19 -16 74 -16 390 0 355 1 369 20 388 19 19 33
20 388 20 316 0 371 -2 390 -16z m900 0 l22 -15 0 -379 c0 -331 -2 -381 -16
-394 -13 -14 -63 -16 -394 -16 l-379 0 -15 22 c-14 19 -16 74 -16 390 0 355 1
369 20 388 19 19 33 20 388 20 316 0 371 -2 390 -16z m900 0 l22 -15 0 -379
c0 -331 -2 -381 -16 -394 -13 -14 -63 -16 -394 -16 l-379 0 -15 22 c-14 19
-16 74 -16 390 0 355 1 369 20 388 19 19 33 20 388 20 316 0 371 -2 390 -16z
m900 0 l22 -15 0 -379 c0 -331 -2 -381 -16 -394 -13 -14 -63 -16 -394 -16
l-379 0 -15 22 c-14 19 -16 74 -16 390 0 355 1 369 20 388 19 19 33 20 388 20
316 0 371 -2 390 -16z m900 0 l22 -15 0 -379 c0 -331 -2 -381 -16 -394 -13
-14 -63 -16 -394 -16 l-379 0 -15 22 c-14 19 -16 74 -16 390 0 355 1 369 20
388 19 19 33 20 388 20 316 0 371 -2 390 -16z m-10798 -904 c19 -19 20 -33 20
-394 0 -327 -2 -377 -16 -390 -13 -14 -63 -16 -391 -16 -336 0 -378 2 -395 17
-17 15 -18 40 -18 390 0 360 1 374 20 393 19 19 33 20 390 20 357 0 371 -1
390 -20z m898 4 l22 -15 0 -379 c0 -331 -2 -381 -16 -394 -13 -14 -63 -16
-391 -16 -336 0 -378 2 -395 17 -17 15 -18 40 -18 390 0 360 1 374 20 393 19
19 33 20 388 20 316 0 371 -2 390 -16z m900 0 l22 -15 0 -379 c0 -331 -2 -381
-16 -394 -13 -14 -63 -16 -391 -16 -336 0 -378 2 -395 17 -17 15 -18 40 -18
390 0 360 1 374 20 393 19 19 33 20 388 20 316 0 371 -2 390 -16z m900 0 l22
-15 0 -379 c0 -331 -2 -381 -16 -394 -13 -14 -63 -16 -391 -16 -336 0 -378 2
-395 17 -17 15 -18 40 -18 390 0 360 1 374 20 393 19 19 33 20 388 20 316 0
371 -2 390 -16z m900 0 l22 -15 0 -379 c0 -331 -2 -381 -16 -394 -13 -14 -63
-16 -391 -16 -336 0 -378 2 -395 17 -17 15 -18 40 -18 390 0 360 1 374 20 393
19 19 33 20 388 20 316 0 371 -2 390 -16z m900 0 l22 -15 0 -379 c0 -331 -2
-381 -16 -394 -13 -14 -63 -16 -391 -16 -336 0 -378 2 -395 17 -17 15 -18 40
-18 390 0 360 1 374 20 393 19 19 33 20 388 20 316 0 371 -2 390 -16z m900 0
l22 -15 0 -379 c0 -331 -2 -381 -16 -394 -13 -14 -63 -16 -391 -16 -336 0
-378 2 -395 17 -17 15 -18 40 -18 390 0 360 1 374 20 393 19 19 33 20 388 20
316 0 371 -2 390 -16z m900 0 l22 -15 0 -379 c0 -331 -2 -381 -16 -394 -13
-14 -63 -16 -394 -16 l-379 0 -15 22 c-14 19 -16 74 -16 390 0 355 1 369 20
388 19 19 33 20 388 20 316 0 371 -2 390 -16z m900 0 l22 -15 0 -379 c0 -331
-2 -381 -16 -394 -13 -14 -63 -16 -394 -16 l-379 0 -15 22 c-14 19 -16 74 -16
390 0 355 1 369 20 388 19 19 33 20 388 20 316 0 371 -2 390 -16z m900 0 l22
-15 0 -379 c0 -331 -2 -381 -16 -394 -13 -14 -63 -16 -394 -16 l-379 0 -15 22
c-14 19 -16 74 -16 390 0 355 1 369 20 388 19 19 33 20 388 20 316 0 371 -2
390 -16z m900 0 l22 -15 0 -379 c0 -331 -2 -381 -16 -394 -13 -14 -63 -16
-394 -16 l-379 0 -15 22 c-14 19 -16 74 -16 390 0 355 1 369 20 388 19 19 33
20 388 20 316 0 371 -2 390 -16z m900 0 l22 -15 0 -379 c0 -331 -2 -381 -16
-394 -13 -14 -63 -16 -394 -16 l-379 0 -15 22 c-14 19 -16 74 -16 390 0 355 1
369 20 388 19 19 33 20 388 20 316 0 371 -2 390 -16z m900 0 l22 -15 0 -379
c0 -331 -2 -381 -16 -394 -13 -14 -63 -16 -394 -16 l-379 0 -15 22 c-14 19
-16 74 -16 390 0 355 1 369 20 388 19 19 33 20 388 20 316 0 371 -2 390 -16z"/>
</g>
</svg>
