<svg width="57" height="57" viewBox="0 0 57 57" fill="none" xmlns="http://www.w3.org/2000/svg">
<g clip-path="url(#clip0_661_444)">
<path fill-rule="evenodd" clip-rule="evenodd" d="M46.902 43.0094H13.4923H9.92962C7.30117 43.0094 5.92679 46.9948 5.84766 48.7878V49.1205C5.92679 50.8914 7.27266 52.599 9.92962 52.599H17.8086H45.5687H46.959C49.2929 52.599 51.1454 50.6887 51.1454 48.357V38.7676C51.1424 41.0991 49.236 43.0094 46.902 43.0094Z" fill="#ECEFF1"/>
<path fill-rule="evenodd" clip-rule="evenodd" d="M13.4923 45.2461L17.7739 23.52L13.4923 0.669264C10.088 0.669264 6.16754 0.257459 5.84766 5.12661V48.7879C5.92679 46.9947 7.30117 45.2461 9.92962 45.2461H13.4923Z" fill="#FCD968"/>
<path fill-rule="evenodd" clip-rule="evenodd" d="M13.4902 0.669335V45.2461H46.8999C49.2339 45.2461 51.1403 43.3358 51.1434 41.001L51.1561 4.86696C51.1561 2.53216 49.2465 0.625 46.9158 0.625L13.4902 0.669335Z" fill="#F5A45A" fill-opacity="0.96"/>
<path fill-rule="evenodd" clip-rule="evenodd" d="M46.959 0.625V45.243C49.2675 45.2145 51.1423 43.3169 51.1454 41.001L51.1581 4.86696C51.1581 2.54799 49.2738 0.647222 46.959 0.625Z" fill="#F55A8E"/>
<path fill-rule="evenodd" clip-rule="evenodd" d="M9.9423 48.3444H46.9146C49.1409 48.3444 50.9776 46.6083 51.1454 44.4256V41.001C51.1423 43.3168 49.2675 45.2144 46.959 45.2429C46.94 45.2429 46.9209 45.2461 46.9019 45.2461H13.4923H9.92962C7.30117 45.2461 5.92679 46.9948 5.84766 48.7879V49.1206C5.86663 49.5989 5.9838 50.0741 6.18965 50.5113C6.75018 49.2949 8.00739 48.3444 9.9423 48.3444Z" fill="#C4CCCF"/>
<path fill-rule="evenodd" clip-rule="evenodd" d="M40.8877 8.875H21.1902C20.4872 8.875 19.9141 9.45157 19.9141 10.1549V12.3249V12.3788V17.4634C19.9141 18.1667 20.4873 18.7433 21.1902 18.7433H26.5516H32.3501H40.8877C41.5908 18.7433 42.1672 18.1667 42.1672 17.4634V12.3756V12.3344V10.1549C42.1671 9.45157 41.5907 8.875 40.8877 8.875Z" fill="#FCD968"/>
<path fill-rule="evenodd" clip-rule="evenodd" d="M27.2931 30.6226C26.5711 30.6226 25.9789 31.1706 25.9789 31.8391V40.8489H24.2087C19.9968 41.058 19.905 44.3844 21.6435 46.621L27.6541 54.3477C29.5985 56.7174 32.7368 56.7174 34.4342 54.3477L40.4448 46.621C42.1834 44.3844 42.0883 41.058 37.8765 40.8489H36.1062V31.8391C36.1062 31.1706 35.5172 30.6226 34.7952 30.6226H27.2931Z" fill="#8BC34A"/>
<path fill-rule="evenodd" clip-rule="evenodd" d="M33.1993 30.6223V41.3934C33.1327 43.3734 33.7028 43.5318 36.2584 43.4937C39.0863 43.4779 39.137 44.4378 36.442 48.0303L30.4219 56.058C31.8976 56.3272 33.4208 55.7571 34.431 54.3472L35.7927 52.5986L39.102 48.3439L40.4416 46.6205C40.7741 46.1929 41.0402 45.7239 41.2238 45.2456C41.9933 43.2244 41.2777 41.0163 37.8733 40.8484H36.103V31.8386C36.103 31.1701 35.514 30.6221 34.792 30.6221H33.1993V30.6223Z" fill="#689F38"/>
<path fill-rule="evenodd" clip-rule="evenodd" d="M40.8911 8.875H38.25V18.6989H40.9386C41.2775 18.6989 41.5878 18.5627 41.8158 18.3441C42.0343 18.1161 42.1704 17.8056 42.1704 17.4634V12.3756V12.3344V10.1549C42.1704 9.45157 41.5941 8.875 40.8911 8.875Z" fill="#E69B56"/>
</g>
<defs>
<clipPath id="clip0_661_444">
<rect width="55.5" height="55.5" fill="white" transform="translate(0.75 0.625)"/>
</clipPath>
</defs>
</svg>
