<svg width="76" height="56" viewBox="0 0 76 56" fill="none" xmlns="http://www.w3.org/2000/svg">
<path fill-rule="evenodd" clip-rule="evenodd" d="M69.0465 0.401367H38.9576H7.44825C5.70279 0.401367 4.26953 1.9424 4.26953 3.8294V47.2134L38.2475 51.5551L72.2254 47.2134V3.8294C72.2252 1.9424 70.7964 0.401367 69.0465 0.401367Z" fill="#C4CCCF"/>
<path d="M38.9576 0.809034H69.0465C70.5428 0.809034 71.8176 2.13801 71.8177 3.8294V46.8545L38.2475 51.1441L4.6772 46.8545V3.8294C4.6772 2.13839 5.95604 0.809034 7.44825 0.809034H38.9576Z" stroke="#0A0A0A" stroke-opacity="0.26" stroke-width="0.815333"/>
<path fill-rule="evenodd" clip-rule="evenodd" d="M29.0063 47.2134H27.4233H4.2695H2.99446C1.7581 47.2134 0.744141 48.3068 0.744141 49.6449V53.4699C0.744141 54.8079 1.7581 55.9014 2.99446 55.9014H73.5001C74.7408 55.9014 75.7547 54.8079 75.7547 53.4699V49.6449C75.7547 48.3069 74.7407 47.2134 73.5001 47.2134H72.2252H49.0756H47.4926V49.7417C47.4926 50.729 46.7396 51.5365 45.8241 51.5365H30.6706C29.7551 51.5365 29.0063 50.7292 29.0063 49.7417V47.2134Z" fill="#ECEFF1"/>
<path d="M27.4233 47.621H28.5986V49.7417C28.5986 50.9248 29.5015 51.9442 30.6706 51.9442H45.8241C46.9919 51.9442 47.9003 50.926 47.9003 49.7417V47.621H49.0756H72.2252H73.5001C74.4871 47.621 75.347 48.5025 75.347 49.6449V53.4699C75.347 54.6123 74.4872 55.4937 73.5001 55.4937H2.99446C2.0122 55.4937 1.15181 54.6128 1.15181 53.4699V49.6449C1.15181 48.5019 2.01218 47.621 2.99446 47.621H4.2695H27.4233Z" stroke="#0A0A0A" stroke-opacity="0.26" stroke-width="0.815333"/>
<path fill-rule="evenodd" clip-rule="evenodd" d="M29.0078 47.2134V49.7417C29.0078 50.729 29.7565 51.5365 30.6721 51.5365H45.8257C46.7412 51.5365 47.4943 50.7292 47.4943 49.7417V47.2134H29.0078Z" fill="#90A4AE"/>
<path d="M29.4155 49.7417V47.621H47.0866V49.7417C47.0866 50.5321 46.489 51.1289 45.8257 51.1289H30.6721C30.0101 51.1289 29.4155 50.5334 29.4155 49.7417Z" stroke="#0A0A0A" stroke-opacity="0.26" stroke-width="0.815333"/>
<path fill-rule="evenodd" clip-rule="evenodd" d="M66.9499 7.4652V40.1542C66.9499 40.6433 66.5776 41.0354 66.1242 41.0354H61.8203V47.2133H72.225V3.8294C72.225 1.9424 70.796 0.401367 69.0462 0.401367H61.8203V6.57467H66.1242C66.5778 6.57467 66.9499 6.97613 66.9499 7.4652Z" fill="#C4CCCF"/>
<path d="M67.3576 40.1542V7.4652C67.3576 6.78059 66.8314 6.167 66.1242 6.167H62.228V0.809034H69.0462C70.5424 0.809034 71.8173 2.13802 71.8173 3.8294V46.8056H62.228V41.4431H66.1242C66.8258 41.4431 67.3576 40.8446 67.3576 40.1542Z" stroke="#0A0A0A" stroke-opacity="0.26" stroke-width="0.815333"/>
<path fill-rule="evenodd" clip-rule="evenodd" d="M68.9264 47.6379C69.5211 48.0762 69.9147 48.8145 69.9147 49.6449V53.4699C69.9147 54.8079 68.9008 55.9014 67.6602 55.9014H73.5C74.7408 55.9014 75.7546 54.8079 75.7546 53.4699V49.6449C75.7546 48.3069 74.7406 47.2134 73.5 47.2134H72.2251H67.6731C68.135 47.218 68.567 47.3702 68.9264 47.6379Z" fill="#C4CCCF"/>
<path d="M73.5 55.4937H69.5242C70.0192 54.9733 70.3224 54.2511 70.3224 53.4699V49.6449C70.3224 48.8589 70.0171 48.1391 69.5217 47.621H72.2251H73.5C74.487 47.621 75.3469 48.5025 75.3469 49.6449V53.4699C75.3469 54.6123 74.4871 55.4937 73.5 55.4937Z" stroke="#0A0A0A" stroke-opacity="0.26" stroke-width="0.815333"/>
<path fill-rule="evenodd" clip-rule="evenodd" d="M61.8203 47.2134H67.6729H72.225V3.8294C72.225 1.9424 70.796 0.401367 69.0462 0.401367H61.8203C61.8203 10.5703 61.8203 37.0445 61.8203 47.2134Z" fill="#90A4AE"/>
<path d="M67.6729 46.8058H62.228V46.7873V46.7249V46.6622V46.5992V46.5358V46.472V46.4078V46.3434V46.2785V46.2133V46.1478V46.0819V46.0156V45.9491V45.8821V45.8149V45.7473V45.6793V45.611V45.5424V45.4734V45.4041V45.3345V45.2645V45.1943V45.1236V45.0527V44.9814V44.9098V44.8379V44.7657V44.6931V44.6203V44.5471V44.4736V44.3998V44.3256V44.2512V44.1764V44.1014V44.026V43.9504V43.8744V43.7981V43.7215V43.6447V43.5675V43.49V43.4123V43.3342V43.2559V43.1773V43.0983V43.0191V42.9396V42.8599V42.7798V42.6995V42.6188V42.5379V42.4568V42.3753V42.2936V42.2116V42.1293V42.0468V41.964V41.8809V41.7975V41.7139V41.6301V41.5459V41.4615V41.3769V41.292V41.2068V41.1214V41.0358V40.9499V40.8637V40.7773V40.6906V40.6037V40.5166V40.4292V40.3416V40.2537V40.1656V40.0772V39.9887V39.8999V39.8108V39.7215V39.632V39.5423V39.4524V39.3622V39.2718V39.1812V39.0903V38.9992V38.908V38.8165V38.7248V38.6328V38.5407V38.4484V38.3558V38.2631V38.1701V38.0769V37.9836V37.89V37.7962V37.7022V37.6081V37.5137V37.4192V37.3244V37.2295V37.1343V37.039V36.9435V36.8478V36.752V36.6559V36.5597V36.4633V36.3667V36.2699V36.1729V36.0758V35.9785V35.8811V35.7835V35.6857V35.5877V35.4896V35.3913V35.2928V35.1942V35.0954V34.9965V34.8974V34.7982V34.6988V34.5992V34.4995V34.3997V34.2997V34.1996V34.0993V33.9989V33.8983V33.7976V33.6968V33.5958V33.4947V33.3934V33.292V33.1905V33.0889V32.9871V32.8852V32.7832V32.681V32.5788V32.4764V32.3739V32.2712V32.1685V32.0656V31.9626V31.8596V31.7564V31.6531V31.5496V31.4461V31.3425V31.2388V31.1349V31.031V30.927V30.8228V30.7186V30.6143V30.5099V30.4054V30.3008V30.1961V30.0913V29.9865V29.8815V29.7765V29.6714V29.5662V29.4609V29.3556V29.2502V29.1447V29.0391V28.9335V28.8278V28.722V28.6161V28.5102V28.4043V28.2982V28.1921V28.086V27.9797V27.8735V27.7671V27.6608V27.5543V27.4478V27.3413V27.2347V27.1281V27.0214V26.9147V26.8079V26.7011V26.5943V26.4874V26.3805V26.2736V26.1666V26.0596V25.9525V25.8454V25.7383V25.6312V25.524V25.4169V25.3097V25.2025V25.0952V24.988V24.8807V24.7734V24.6661V24.5588V24.4515V24.3441V24.2368V24.1295V24.0221V23.9148V23.8074V23.7V23.5927V23.4853V23.378V23.2707V23.1633V23.056V22.9487V22.8414V22.7341V22.6268V22.5196V22.4123V22.3051V22.1979V22.0908V21.9836V21.8765V21.7694V21.6623V21.5552V21.4482V21.3412V21.2343V21.1274V21.0205V20.9137V20.8069V20.7001V20.5934V20.4867V20.3801V20.2735V20.167V20.0605V19.954V19.8477V19.7413V19.6351V19.5288V19.4227V19.3166V19.2105V19.1046V18.9987V18.8928V18.787V18.6813V18.5757V18.4701V18.3646V18.2592V18.1539V18.0486V17.9434V17.8383V17.7333V17.6283V17.5235V17.4187V17.314V17.2094V17.1049V17.0005V16.8962V16.792V16.6878V16.5838V16.4799V16.376V16.2723V16.1687V16.0652V15.9617V15.8584V15.7552V15.6522V15.5492V15.4463V15.3436V15.2409V15.1384V15.036V14.9338V14.8316V14.7296V14.6277V14.5259V14.4243V14.3228V14.2214V14.1201V14.019V13.918V13.8172V13.7165V13.6159V13.5155V13.4152V13.3151V13.2151V13.1153V13.0156V12.916V12.8166V12.7174V12.6183V12.5194V12.4206V12.322V12.2235V12.1252V12.0271V11.9291V11.8313V11.7337V11.6363V11.539V11.4419V11.3449V11.2481V11.1515V11.0551V10.9589V10.8628V10.767V10.6713V10.5758V10.4805V10.3853V10.2904V10.1956V10.1011V10.0067V9.91256V9.81859V9.72482V9.63125V9.53788V9.44471V9.35174V9.25898V9.16643V9.07409V8.98196V8.89003V8.79833V8.70683V8.61555V8.52449V8.43365V8.34302V8.25262V8.16244V8.07249V7.98276V7.89326V7.80399V7.71495V7.62614V7.53756V7.44922V7.36112V7.27325V7.18562V7.09823V7.01109V6.92418V6.83753V6.75111V6.66495V6.57904V6.49337V6.40796V6.3228V6.2379V6.15326V6.06887V5.98474V5.90087V5.81727V5.73393V5.65085V5.56804V5.4855V5.40323V5.32123V5.2395V5.15805V5.07687V4.99597V4.91535V4.835V4.75494V4.67516V4.59567V4.51646V4.43754V4.35891V4.28056V4.20251V4.12476V4.04729V3.97012V3.89325V3.81668V3.74041V3.66444V3.58878V3.51342V3.43836V3.36361V3.28917V3.21505V3.14123V3.06773V2.99454V2.92167V2.84912V2.77688V2.70497V2.63338V2.56211V2.49117V2.42055V2.35026V2.2803V2.21067V2.14138V2.07242V2.00379V1.9355V1.86755V1.79994V1.73267V1.66574V1.59916V1.53292V1.46703V1.40148V1.33629V1.27145V1.20696V1.14282V1.07904V1.01562V0.952559V0.889856V0.827514V0.809034H69.0462C70.5424 0.809034 71.8173 2.13802 71.8173 3.8294V46.8058H67.6729Z" stroke="#0A0A0A" stroke-opacity="0.26" stroke-width="0.815333"/>
<path d="M68.3353 52.7855H68.301C67.6709 52.7855 67.1602 52.2348 67.1602 51.5554C67.1602 50.8759 67.6709 50.3252 68.301 50.3252H68.3353C68.9654 50.3252 69.4761 50.8759 69.4761 51.5554C69.4761 52.2348 68.9653 52.7855 68.3353 52.7855Z" fill="#8BC34A"/>
<path d="M68.3353 52.3779H68.301C67.9244 52.3779 67.5678 52.0391 67.5678 51.5554C67.5678 51.0716 67.9244 50.7329 68.301 50.7329H68.3353C68.7118 50.7329 69.0684 51.0716 69.0684 51.5554C69.0684 52.0391 68.7117 52.3779 68.3353 52.3779Z" stroke="#0A0A0A" stroke-opacity="0.26" stroke-width="0.815333"/>
<path d="M62.8547 52.7855H62.8205C62.1904 52.7855 61.6797 52.2348 61.6797 51.5554C61.6797 50.8759 62.1904 50.3252 62.8205 50.3252H62.8547C63.4848 50.3252 63.9955 50.8759 63.9955 51.5554C63.9955 52.2348 63.4848 52.7855 62.8547 52.7855Z" fill="#FFD54F"/>
<path d="M62.8547 52.3779H62.8205C62.444 52.3779 62.0874 52.0391 62.0874 51.5554C62.0874 51.0716 62.444 50.7329 62.8205 50.7329H62.8547C63.2312 50.7329 63.5878 51.0716 63.5878 51.5554C63.5878 52.0391 63.2312 52.3779 62.8547 52.3779Z" stroke="#0A0A0A" stroke-opacity="0.26" stroke-width="0.815333"/>
<path d="M57.3761 52.8178H57.342C56.7119 52.8178 56.2012 52.267 56.2012 51.5876C56.2012 50.9082 56.7119 50.3574 57.342 50.3574H57.3761C58.0063 50.3574 58.517 50.9082 58.517 51.5876C58.517 52.267 58.0063 52.8178 57.3761 52.8178Z" fill="#F55A8E"/>
<path d="M57.3761 52.4101H57.342C56.9654 52.4101 56.6088 52.0714 56.6088 51.5876C56.6088 51.1038 56.9654 50.7651 57.342 50.7651H57.3761C57.7527 50.7651 58.1093 51.1038 58.1093 51.5876C58.1093 52.0714 57.7527 52.4101 57.3761 52.4101Z" stroke="#0A0A0A" stroke-opacity="0.26" stroke-width="0.815333"/>
<path fill-rule="evenodd" clip-rule="evenodd" d="M66.9502 40.1537V7.46475C66.9502 6.97568 66.5779 6.57422 66.1245 6.57422H37.5671H10.3703C9.91685 6.57422 9.54883 6.97568 9.54883 7.46475V40.1537C9.54883 40.6428 9.9167 41.0349 10.3703 41.0349H66.1245C66.578 41.0351 66.9502 40.6428 66.9502 40.1537Z" fill="#8EBFE8"/>
<path d="M66.1246 40.6273H66.1245H10.3703C10.1676 40.6273 9.95649 40.4443 9.95649 40.1537V7.46475C9.95649 7.16845 10.1731 6.98189 10.3703 6.98189H37.5671H66.1245C66.3243 6.98189 66.5425 7.17128 66.5425 7.46475V40.1537C66.5425 40.4416 66.3297 40.6273 66.1246 40.6273Z" stroke="#0A0A0A" stroke-opacity="0.26" stroke-width="0.815333"/>
<path fill-rule="evenodd" clip-rule="evenodd" d="M61.8203 6.57422V41.0351H66.1242C66.5776 41.0351 66.9499 40.643 66.9499 40.1539V7.46475C66.9499 6.97568 66.5776 6.57422 66.1242 6.57422H61.8203Z" fill="#519AD6"/>
<path d="M66.1242 40.6274H62.228V6.98189H66.1242C66.324 6.98189 66.5422 7.17128 66.5422 7.46475V40.1539C66.5422 40.4416 66.3294 40.6274 66.1242 40.6274Z" stroke="#0A0A0A" stroke-opacity="0.26" stroke-width="0.815333"/>
<path d="M44.8962 24.2441C44.5925 24.2441 44.2979 24.113 44.0815 23.8749L40.5135 19.9484C40.0725 19.463 40.0798 18.6841 40.5299 18.2085C40.98 17.7329 41.7022 17.7413 42.1432 18.2262L44.544 20.8682L48.0881 12.4163C48.2729 11.9759 48.6794 11.6929 49.1277 11.6929H59.6308C60.2609 11.6929 60.7717 12.2436 60.7717 12.923C60.7717 13.6025 60.2609 14.1532 59.6308 14.1532H49.864L45.9361 23.5205C45.7809 23.8907 45.4664 24.1543 45.0956 24.2251C45.0289 24.2378 44.9623 24.2441 44.8962 24.2441Z" fill="#37474F"/>
<path d="M45.0956 24.2251L45.0196 23.8246C44.9774 23.8326 44.9362 23.8364 44.8962 23.8364C44.7115 23.8364 44.5252 23.7569 44.3832 23.6007L40.8152 19.6743C40.8152 19.6743 40.8152 19.6743 40.8152 19.6743C40.5173 19.3463 40.5229 18.809 40.826 18.4887C41.1123 18.1861 41.5594 18.1903 41.8415 18.5004C41.8415 18.5004 41.8416 18.5004 41.8416 18.5005L44.2423 21.1424L44.6725 21.6159L44.92 21.0259L48.464 12.574C48.464 12.574 48.4641 12.5739 48.4641 12.5739C48.5907 12.272 48.8573 12.1005 49.1277 12.1005H59.6308C60.0074 12.1005 60.364 12.4393 60.364 12.923C60.364 13.4068 60.0074 13.7455 59.6308 13.7455H49.864H49.5929L49.4881 13.9956L45.5601 23.3629L45.5601 23.3629C45.4538 23.6165 45.246 23.7813 45.0191 23.8247L45.0956 24.2251ZM45.0956 24.2251C45.4664 24.1543 45.7809 23.8907 45.9361 23.5205L40.5135 19.9484L44.0815 23.8749C44.2979 24.113 44.5925 24.2441 44.8962 24.2441C44.9623 24.2441 45.0289 24.2378 45.0956 24.2251Z" stroke="#0A0A0A" stroke-opacity="0.26" stroke-width="0.815333"/>
<path d="M53.3913 22.0681L51.967 23.9883C51.7132 24.3152 51.4513 24.4784 51.1811 24.4784C50.9109 24.4784 50.6817 24.3768 50.4934 24.1738C50.305 23.9708 50.2109 23.7233 50.2109 23.4321C50.2109 23.1585 50.2804 22.9422 50.4197 22.7833L52.2493 20.625L50.8003 18.9168C50.6039 18.6872 50.5057 18.4357 50.5057 18.1618C50.5057 17.8704 50.5957 17.628 50.7759 17.4335C50.8658 17.3454 50.9681 17.2748 51.0829 17.2216C51.1975 17.1687 51.3242 17.1421 51.4636 17.1421C51.7582 17.1421 52.0039 17.2746 52.2002 17.5394L53.3913 19.1815L54.6068 17.5394C54.8033 17.2746 55.0488 17.1421 55.3436 17.1421C55.6138 17.1421 55.8388 17.2438 56.019 17.4468C56.2071 17.6321 56.3015 17.8704 56.3015 18.1616C56.3015 18.4265 56.2031 18.6782 56.0067 18.9167L54.5577 20.6248L56.375 22.7832C56.5224 22.9599 56.5961 23.1761 56.5961 23.4319C56.5961 23.7233 56.5019 23.9708 56.3136 24.1737C56.1252 24.3767 55.8961 24.4782 55.6261 24.4782C55.3559 24.4782 55.0938 24.315 54.8402 23.9882L53.3913 22.0681Z" fill="#37474F"/>
<path d="M53.3885 21.3876L53.7167 21.8226L55.1639 23.7403C55.3811 24.0196 55.5373 24.0705 55.6261 24.0705C55.7794 24.0705 55.9012 24.0187 56.0148 23.8964C56.1291 23.7732 56.1884 23.6265 56.1884 23.4319C56.1884 23.2606 56.1415 23.1401 56.0624 23.0449C56.0623 23.0447 56.0621 23.0444 56.0619 23.0442L54.2459 20.8874L54.024 20.6239L54.2469 20.3611L55.6938 18.6553C55.8393 18.4779 55.8938 18.3159 55.8938 18.1616C55.8938 17.9675 55.8351 17.8378 55.7329 17.7372L55.7232 17.7276L55.7141 17.7174C55.6107 17.6009 55.4963 17.5498 55.3436 17.5498C55.1947 17.5498 55.0644 17.6069 54.9343 17.7822C54.9343 17.7823 54.9343 17.7823 54.9342 17.7823L53.7189 19.4241L53.3879 19.8712L53.0613 19.4209L51.8715 17.7807C51.742 17.6066 51.6119 17.5498 51.4636 17.5498C51.3774 17.5498 51.3099 17.5658 51.2541 17.5916L53.3885 21.3876ZM53.3885 21.3876L53.0638 21.8253L51.6423 23.7417M53.3885 21.3876L51.6423 23.7417M51.6423 23.7417C51.4254 24.0199 51.2697 24.0707 51.1811 24.0707C51.0275 24.0707 50.9056 24.0188 50.7923 23.8966L50.7922 23.8965C50.6778 23.7732 50.6186 23.6266 50.6186 23.4321C50.6186 23.2273 50.6696 23.1167 50.7262 23.0521L50.7263 23.0521L50.7307 23.0469L52.5602 20.8886L52.7838 20.6249L52.5602 20.3613L51.1112 18.6531L51.1112 18.6531L51.1101 18.6518C50.9698 18.4879 50.9134 18.3282 50.9134 18.1618C50.9134 17.9665 50.9692 17.8281 51.0683 17.7178C51.1232 17.6655 51.1845 17.6238 51.254 17.5917L51.6423 23.7417Z" stroke="#0A0A0A" stroke-opacity="0.26" stroke-width="0.815333"/>
<path d="M57.3955 36.1288H45.9983C45.3681 36.1288 44.8574 35.5781 44.8574 34.8986C44.8574 34.2192 45.3681 33.6685 45.9983 33.6685H57.3955C58.0256 33.6685 58.5363 34.2192 58.5363 34.8986C58.5363 35.5781 58.0255 36.1288 57.3955 36.1288Z" fill="#37474F"/>
<path d="M57.3955 35.7211H45.9983C45.6217 35.7211 45.2651 35.3824 45.2651 34.8986C45.2651 34.4148 45.6217 34.0761 45.9983 34.0761H57.3955C57.7721 34.0761 58.1287 34.4148 58.1287 34.8986C58.1287 35.3824 57.7719 35.7211 57.3955 35.7211Z" stroke="#0A0A0A" stroke-opacity="0.26" stroke-width="0.815333"/>
<path d="M57.3955 31.1786H45.9983C45.3681 31.1786 44.8574 30.6279 44.8574 29.9484C44.8574 29.269 45.3681 28.7183 45.9983 28.7183H57.3955C58.0256 28.7183 58.5363 29.269 58.5363 29.9484C58.5363 30.6279 58.0255 31.1786 57.3955 31.1786Z" fill="#37474F"/>
<path d="M57.3955 30.7709H45.9983C45.6217 30.7709 45.2651 30.4322 45.2651 29.9484C45.2651 29.4646 45.6217 29.1259 45.9983 29.1259H57.3955C57.7721 29.1259 58.1287 29.4646 58.1287 29.9484C58.1287 30.4322 57.7719 30.7709 57.3955 30.7709Z" stroke="#0A0A0A" stroke-opacity="0.26" stroke-width="0.815333"/>
<path fill-rule="evenodd" clip-rule="evenodd" d="M21.0625 22.811C22.4871 24.7396 25.2552 27.8862 28.8233 25.7316C30.4747 24.735 32.6909 22.7419 34.2481 23.3277L29.7901 16.5639L27.4841 15.0967L25.1781 16.5639L21.0625 22.811Z" fill="#ECEFF1"/>
<path d="M28.6127 25.3826L28.6126 25.3827C27.7811 25.8847 27.0155 26.0677 26.3172 26.0479C25.6159 26.0281 24.9563 25.8029 24.3426 25.4493C23.2003 24.791 22.2553 23.711 21.5605 22.796L25.4706 16.861L27.4841 15.5799L29.4977 16.861L33.4273 22.8232C33.241 22.8386 33.0548 22.8733 32.8713 22.922C32.3692 23.0552 31.8592 23.3001 31.3677 23.5829C30.8748 23.8666 30.3823 24.1992 29.9184 24.5168C29.8675 24.5516 29.8169 24.5863 29.7668 24.6206C29.3547 24.9032 28.9695 25.1673 28.6127 25.3826Z" stroke="#0A0A0A" stroke-opacity="0.26" stroke-width="0.815333"/>
<path fill-rule="evenodd" clip-rule="evenodd" d="M25.1785 16.5636H29.7905H30.0772C31.1468 16.5636 32.0238 15.6223 32.0238 14.469C32.0238 13.3157 31.1468 12.3696 30.0772 12.3696H24.8919C23.8223 12.3696 22.9453 13.3155 22.9453 14.469C22.9453 15.6225 23.8223 16.5636 24.8919 16.5636H25.1785Z" fill="#ECEFF1"/>
<path d="M29.7905 16.1559H25.1785H24.8919C24.0748 16.1559 23.353 15.4256 23.353 14.469C23.353 13.5111 24.0759 12.7773 24.8919 12.7773H30.0772C30.8932 12.7773 31.6161 13.5112 31.6161 14.469C31.6161 15.4255 30.8943 16.1559 30.0772 16.1559H29.7905Z" stroke="#0A0A0A" stroke-opacity="0.26" stroke-width="0.815333"/>
<path fill-rule="evenodd" clip-rule="evenodd" d="M18.6785 26.4234C15.7736 30.0222 18.9352 34.899 22.4305 34.899H27.4832H32.5401C36.0312 34.899 39.1927 30.0222 36.2878 26.4234L34.2472 23.3275C32.6898 22.7416 30.6877 22.3817 29.0405 23.3783C25.4724 25.533 22.4862 24.7394 21.0616 22.8108L18.6785 26.4234Z" fill="#F55A8E"/>
<path d="M18.9957 26.6794L19.008 26.6642L19.0188 26.6478L21.1 23.4929C22.7818 25.2872 25.8164 25.8015 29.2513 23.7273L29.2516 23.7271C30.6923 22.8554 32.4781 23.1191 33.9804 23.6636L35.9475 26.6477L35.9583 26.6641L35.9706 26.6794C37.3053 28.3329 37.2524 30.2735 36.4504 31.8234C35.6388 33.3919 34.0977 34.4914 32.5401 34.4914H27.4832H22.4305C20.8706 34.4914 19.3285 33.3917 18.5164 31.8233C17.714 30.2735 17.6611 28.3329 18.9957 26.6794Z" stroke="#0A0A0A" stroke-opacity="0.26" stroke-width="0.815333"/>
<path fill-rule="evenodd" clip-rule="evenodd" d="M29.4271 14.4688C29.4271 15.1747 29.0976 15.8022 28.5971 16.1852C28.2805 16.4251 27.8955 16.5636 27.4805 16.5636H29.7865H30.0732C31.1428 16.5636 32.0198 15.6223 32.0198 14.469C32.0198 13.3157 31.1428 12.3696 30.0732 12.3696H27.4806C28.55 12.3696 29.4271 13.3153 29.4271 14.4688Z" fill="#C4CCCF"/>
<path d="M29.7865 16.1559H29.2174C29.6016 15.7074 29.8348 15.1139 29.8348 14.4688C29.8348 13.827 29.6013 13.2284 29.2142 12.7773H30.0732C30.8892 12.7773 31.6121 13.5112 31.6121 14.469C31.6121 15.4255 30.8903 16.1559 30.0732 16.1559H29.7865Z" stroke="#0A0A0A" stroke-opacity="0.26" stroke-width="0.815333"/>
<path fill-rule="evenodd" clip-rule="evenodd" d="M28.7633 20.0105L30.6157 22.8157C31.8607 22.6218 33.1655 22.9218 34.2481 23.3278L29.79 16.564H27.4841H25.1781L24.2539 17.9712H26.3331C27.728 17.9711 27.9334 18.7509 28.7633 20.0105Z" fill="#C4CCCF"/>
<path d="M30.8157 22.3787L29.1037 19.7862C29.1037 19.7862 29.1037 19.7862 29.1037 19.7861C28.9701 19.5833 28.8569 19.3995 28.7483 19.2231C28.6899 19.1282 28.6328 19.0355 28.5745 18.943C28.4146 18.6894 28.2505 18.4461 28.0579 18.24C27.8603 18.0287 27.6305 17.8538 27.338 17.735C27.0486 17.6174 26.7193 17.5635 26.3331 17.5636C26.3331 17.5636 26.3331 17.5636 26.3331 17.5636H25.0093L25.3981 16.9716H27.4841H29.5705L33.2767 22.5949C32.4988 22.3982 31.6539 22.2906 30.8157 22.3787Z" stroke="#0A0A0A" stroke-opacity="0.26" stroke-width="0.815333"/>
<path fill-rule="evenodd" clip-rule="evenodd" d="M31.3716 24.0517L36.6596 32.2828C37.6649 30.5803 37.8233 28.3241 36.2873 26.4232L34.2467 23.3274C33.1643 22.9213 31.8594 22.6215 30.6144 22.8152C30.6015 22.8152 30.593 22.8198 30.5801 22.8198L31.3716 24.0517Z" fill="#BA4583"/>
<path d="M31.7146 23.8314L31.7146 23.8314L31.286 23.1642C32.2029 23.1409 33.1427 23.3611 33.98 23.6636L35.947 26.6476L35.9578 26.6641L35.9702 26.6794C37.2054 28.208 37.2538 29.9835 36.6186 31.4647L31.7146 23.8314Z" stroke="#0A0A0A" stroke-opacity="0.26" stroke-width="0.815333"/>
</svg>
