<svg width="72" height="57" viewBox="0 0 72 57" fill="none" xmlns="http://www.w3.org/2000/svg">
<path fill-rule="evenodd" clip-rule="evenodd" d="M5.31266 5.7998H4.25651C2.05395 5.7998 0.25 7.58812 0.25 9.77572V44.5534C0.25 47.3235 2.27595 49.9469 5.9496 49.9511L33.3668 49.9836L57.6323 49.9551L66.4877 42.6142V9.77572C66.4877 7.58812 64.6838 5.7998 62.4771 5.7998H61.4251H5.31266Z" fill="#8EBFE8"/>
<path fill-rule="evenodd" clip-rule="evenodd" d="M34.6727 43.4812L34.446 43.7352L33.3668 44.9408H7.38703C6.24492 44.9408 5.3125 43.9907 5.3125 42.8307V42.28C11.0956 35.3091 26.2362 36.0852 32.286 41.2028C32.688 41.5425 33.0502 41.9019 33.3668 42.28L34.446 43.2731L34.6727 43.4812Z" fill="#90A4AE"/>
<path fill-rule="evenodd" clip-rule="evenodd" d="M61.4256 42.2798V42.8306C61.4256 43.9905 60.4889 44.9407 59.3497 44.9407H33.3672V42.2798C33.6638 41.9075 34.0259 41.5579 34.4465 41.2312C39.7563 37.1008 54.2852 36.6656 61.4256 42.2798Z" fill="#90A4AE"/>
<path fill-rule="evenodd" clip-rule="evenodd" d="M38.5437 23.805L34.446 38.4275L33.3668 42.2797C33.0559 42.1013 32.6938 41.9273 32.286 41.7618C26.8907 39.5575 13.5038 38.5503 5.3125 42.2797V4.81829C5.3125 2.82514 6.11815 2.60965 8.50063 1.94199C16.6363 -0.350802 27.5466 0.663697 32.286 2.59692C32.6937 2.76383 33.0559 2.93642 33.3668 3.11482L34.446 7.42776L38.5437 23.805Z" fill="#ECEFF1"/>
<path fill-rule="evenodd" clip-rule="evenodd" d="M61.4256 4.81837V42.2799C53.23 38.549 39.8403 39.5578 34.4465 41.762C34.0401 41.9276 33.6779 42.1015 33.3672 42.2799V3.11476C33.678 2.93636 34.0387 2.76377 34.4465 2.59686C39.1844 0.663637 50.0962 -0.350723 58.2318 1.94193C60.6158 2.60973 61.4256 2.82508 61.4256 4.81837Z" fill="#ECEFF1"/>
<path fill-rule="evenodd" clip-rule="evenodd" d="M53.9312 44.9408L54.0504 47.9351C54.0792 48.6643 54.2722 49.3812 54.6134 49.9598C55.3613 51.2389 56.8119 51.8663 58.6981 50.5586L59.8075 49.699L64.5578 55.7323C64.9112 56.1763 65.5687 56.2578 66.0208 55.9075L70.7136 52.2737C71.1656 51.9234 71.2478 51.2715 70.8944 50.8235L66.1399 44.7944L67.2494 43.9348C69.5136 41.9794 68.3794 39.9507 66.4891 39.0789C66.2713 38.9812 66.0412 38.8955 65.8069 38.8263L61.4264 37.5634L57.9747 36.5694C55.1433 35.6202 53.9394 36.7037 53.7462 38.8628C53.7297 39.0747 53.7174 39.2947 53.7215 39.5269L53.7462 40.2031L53.9312 44.9408Z" fill="#FFD54F"/>
<path fill-rule="evenodd" clip-rule="evenodd" d="M66.8725 45.7222C65.9109 48.3946 64.1439 50.6839 61.8633 52.3135L64.5548 55.7314C64.9082 56.1754 65.5657 56.2569 66.0177 55.9066L70.7106 52.2728C71.1626 51.9225 71.2448 51.2706 70.8913 50.8226L66.8725 45.7222Z" fill="#E69B56"/>
<path fill-rule="evenodd" clip-rule="evenodd" d="M53.9281 44.9399H49.375V49.9669L54.6103 49.9587C54.2692 49.3802 54.076 48.6633 54.0472 47.934L53.9281 44.9399Z" fill="#519AD6"/>
<path fill-rule="evenodd" clip-rule="evenodd" d="M61.4238 24.0374V37.5624L65.8043 38.8253C66.0385 38.8945 66.2686 38.9801 66.4865 39.0779V9.77524C66.4865 7.58763 64.6825 5.79932 62.4758 5.79932H61.4238V18.9413V24.0374Z" fill="#519AD6"/>
<path fill-rule="evenodd" clip-rule="evenodd" d="M61.4236 37.5624V24.0375V18.9412V5.79934V4.81751C61.4236 2.82546 60.6141 2.60955 58.2306 1.94148C55.4815 1.16338 52.416 0.768234 49.375 0.658203V5.79934V9.42095V16.7537V24.0905V31.4232V38.202V39.8274C50.8379 39.8804 52.305 40.0026 53.7432 40.2022L53.7185 39.5259C53.7144 39.2937 53.7267 39.0738 53.7432 38.8619C53.9362 36.7028 55.1403 35.6192 57.9717 36.5684L61.4236 37.5624Z" fill="#C4CCCF"/>
<path fill-rule="evenodd" clip-rule="evenodd" d="M53.9281 44.9398L53.7432 40.2019C52.3049 40.0024 50.8379 39.8802 49.375 39.8271V44.9398H53.9281Z" fill="#546E7A"/>
<path d="M10.4791 26.2061C10.0692 26.2061 9.67722 25.9713 9.49605 25.5738C9.24858 25.0308 9.48788 24.39 10.0304 24.1422C13.5473 22.5375 17.963 22.4319 20.2824 22.5117C23.7609 22.6316 26.9089 23.2742 28.4977 24.1886C29.0147 24.4862 29.1928 25.1466 28.8954 25.664C28.5981 26.1813 27.9378 26.3595 27.421 26.0619C25.0031 24.6703 16.1747 23.7132 10.9264 26.1084C10.7813 26.1747 10.629 26.2061 10.4791 26.2061Z" fill="#546E7A"/>
<path d="M10.4791 33.5427C10.0694 33.5427 9.6776 33.3081 9.49629 32.9109C9.24855 32.3681 9.48743 31.727 10.0298 31.4791C13.5472 29.8713 17.9638 29.7651 20.2824 29.8453C23.7617 29.9651 26.9101 30.6091 28.4988 31.5259C29.0155 31.824 29.1928 32.4848 28.8948 33.0017C28.5967 33.5188 27.9364 33.6961 27.42 33.398C25.0036 32.0037 16.1772 31.0451 10.9271 33.4447C10.7818 33.5113 10.6291 33.5427 10.4791 33.5427Z" fill="#546E7A"/>
<path d="M10.4791 18.8739C10.0692 18.8739 9.67722 18.639 9.49605 18.2415C9.24858 17.6986 9.48788 17.0578 10.0304 16.81C13.5484 15.2045 17.9639 15.0988 20.2823 15.178C23.7624 15.2974 26.9108 15.9408 28.4989 16.8572C29.0155 17.1553 29.1928 17.8161 28.8948 18.333C28.5967 18.8501 27.9364 19.0272 27.42 18.7293C25.006 17.3362 16.1808 16.3785 10.9266 18.7763C10.7814 18.8425 10.629 18.8739 10.4791 18.8739Z" fill="#546E7A"/>
<path d="M10.4791 11.5407C10.0694 11.5407 9.6776 11.3061 9.49629 10.9089C9.24855 10.3661 9.48743 9.72514 10.0298 9.47713C13.5472 7.86943 17.9634 7.76327 20.2824 7.84327C23.7618 7.96313 26.9101 8.60712 28.4988 9.52391C29.0155 9.82203 29.1928 10.4828 28.8948 10.9997C28.5967 11.5168 27.9364 11.6939 27.42 11.396C25.0037 10.0017 16.1773 9.04309 10.9271 11.4427C10.7818 11.5092 10.6291 11.5407 10.4791 11.5407Z" fill="#546E7A"/>
<path d="M56.2537 26.6707C56.1038 26.6707 55.9515 26.6393 55.8062 26.573C50.5614 24.1796 41.7311 25.1361 39.3111 26.5269C38.7939 26.824 38.134 26.6455 37.837 26.128C37.54 25.6105 37.7184 24.95 38.2356 24.6529C41.4809 22.7878 51.045 22.0252 56.7025 24.6068C57.2451 24.8544 57.4844 25.4954 57.2369 26.0383C57.0556 26.4358 56.6636 26.6707 56.2537 26.6707Z" fill="#546E7A"/>
<path d="M56.2537 34.0075C56.1038 34.0075 55.9516 33.976 55.8062 33.9097C50.5555 31.5136 41.7282 32.4708 39.3121 33.863C38.7955 34.1605 38.135 33.983 37.8376 33.4657C37.54 32.9485 37.7177 32.2879 38.2345 31.9902C41.4757 30.1227 51.0386 29.3589 56.7024 31.9434C57.2449 32.191 57.4842 32.832 57.2368 33.375C57.0556 33.7726 56.6636 34.0073 56.2537 34.0075Z" fill="#546E7A"/>
<path d="M56.2537 19.3382C56.1038 19.3382 55.9515 19.3067 55.8062 19.2404C50.5614 16.847 41.7311 17.8035 39.3111 19.1944C38.7939 19.4915 38.134 19.313 37.837 18.7955C37.54 18.278 37.7184 17.6175 38.2356 17.3204C41.4809 15.4553 51.045 14.6926 56.7025 17.2743C57.2451 17.5219 57.4844 18.1628 57.2369 18.7058C57.0556 19.1034 56.6636 19.3382 56.2537 19.3382Z" fill="#546E7A"/>
<path d="M56.2536 12.0055C56.1035 12.0055 55.951 11.9739 55.8057 11.9075C50.5591 9.50925 41.7306 10.4676 39.3121 11.861C38.7955 12.1587 38.135 11.981 37.8376 11.4638C37.54 10.9466 37.7177 10.286 38.2345 9.98827C41.4786 8.11899 51.0429 7.35473 56.7029 9.94177C57.2454 10.1896 57.4842 10.8307 57.2365 11.3736C57.055 11.771 56.6632 12.0055 56.2536 12.0055Z" fill="#546E7A"/>
<path d="M34.4472 2.59668V44.9406H32.2871V2.59668C32.6948 2.76359 33.057 2.93618 33.3679 3.11459C33.6786 2.93632 34.0393 2.76359 34.4472 2.59668Z" fill="#90A4AE"/>
</svg>
