<svg width="45" height="45" viewBox="0 0 45 45" fill="none" xmlns="http://www.w3.org/2000/svg">
<path fill-rule="evenodd" clip-rule="evenodd" d="M26.2899 28.5098C29.713 24.9519 31.8179 20.1146 31.8179 14.7852C31.8179 9.28001 29.5718 4.29984 25.9468 0.712576C27.366 0.250037 28.881 0 30.4544 0C38.4876 0 44.9997 6.51768 44.9997 14.5576C44.9997 22.5976 38.4876 29.1153 30.4544 29.1153C29.0072 29.1153 27.6093 28.9037 26.2899 28.5098Z" fill="#E6AF70"/>
<path fill-rule="evenodd" clip-rule="evenodd" d="M28.4855 18.7259C24.9306 15.2998 20.0973 13.1931 14.7724 13.1931C9.27198 13.1931 4.2961 15.441 0.711899 19.0691C0.249799 17.6487 -2.82163e-07 16.1325 -4.33464e-07 14.5578C-1.20598e-06 6.51785 6.51213 0.000169711 14.5452 0.000169552C22.5784 0.000169392 29.0905 6.51785 29.0905 14.5578C29.0905 16.0063 28.8791 17.4054 28.4855 18.7259Z" fill="#2C7D99"/>
<path fill-rule="evenodd" clip-rule="evenodd" d="M18.71 16.0733C15.287 19.6312 13.1822 24.4684 13.1822 29.7977C13.1822 35.3029 15.4282 40.2831 19.0532 43.8703C17.6339 44.3329 16.1187 44.583 14.5452 44.583C6.51209 44.583 -4.5822e-05 38.0653 -4.65243e-05 30.0254C-4.72266e-05 21.9854 6.51208 15.4677 14.5452 15.4677C15.9926 15.4677 17.3906 15.6793 18.71 16.0733Z" fill="#E6AF70"/>
<path fill-rule="evenodd" clip-rule="evenodd" d="M16.5141 26.2738C20.0691 29.7001 24.9025 31.807 30.2275 31.807C35.7278 31.807 40.7036 29.5592 44.2877 25.9314C44.7498 27.3516 44.9995 28.8678 44.9995 30.4423C44.9995 38.4823 38.4874 44.9999 30.4543 44.9999C22.4211 44.9999 15.909 38.4823 15.909 30.4423C15.909 28.9937 16.1204 27.5944 16.5141 26.2738Z" fill="#2C7D99"/>
</svg>


