<svg width="99" height="99" viewBox="0 0 99 99" fill="none" xmlns="http://www.w3.org/2000/svg">
<path fill-rule="evenodd" clip-rule="evenodd" d="M57.8381 62.669C65.369 54.8481 69.9999 44.2148 69.9999 32.5C69.9999 20.3988 65.0585 9.45167 57.0835 1.56632C60.2057 0.549608 63.5389 0 67.0004 0C84.6735 0 99.0004 14.3269 99.0004 32C99.0004 49.6731 84.6735 64 67.0004 64C63.8162 64 60.7407 63.5349 57.8381 62.669Z" fill="#9959E6"/>
<path fill-rule="evenodd" clip-rule="evenodd" d="M62.669 41.1624C54.8481 33.6314 44.2148 29.0006 32.5 29.0006C20.3988 29.0006 9.45167 33.942 1.56632 41.917C0.549607 38.7947 -2.82174e-07 35.4616 -4.3348e-07 32.0001C-1.206e-06 14.327 14.3269 0.000121034 32 0.000120262C49.6731 0.000119489 64 14.327 64 32.0001C64 35.1842 63.5349 38.2597 62.669 41.1624Z" fill="#9959E6"/>
<path fill-rule="evenodd" clip-rule="evenodd" d="M41.1624 35.331C33.6314 43.1519 29.0006 53.7852 29.0006 65.5C29.0006 77.6012 33.942 88.5483 41.917 96.4337C38.7947 97.4504 35.4616 98 32.0001 98C14.327 98 0.000120408 83.6731 0.000118863 66C0.000117318 48.3269 14.327 34 32.0001 34C35.1842 34 38.2597 34.4651 41.1624 35.331Z" fill="#9959E6"/>
<path fill-rule="evenodd" clip-rule="evenodd" d="M36.331 57.7546C44.1519 65.2855 54.7852 69.9164 66.5 69.9164C78.6012 69.9164 89.5483 64.975 97.4337 57C98.4504 60.1223 99 63.4554 99 66.9169C99 84.59 84.6731 98.9169 67 98.9169C49.3269 98.9169 35 84.59 35 66.9169C35 63.7327 35.4651 60.6572 36.331 57.7546Z" fill="#9959E6"/>
<circle cx="50.5" cy="49.5" r="6.5" fill="#CCDD67"/>
</svg>
