<svg width="2151" height="671" viewBox="0 0 2151 671" fill="none" xmlns="http://www.w3.org/2000/svg">
<g clip-path="url(#clip0_663_126)">
<mask id="mask0_663_126" style="mask-type:luminance" maskUnits="userSpaceOnUse" x="122" y="89" width="1996" height="560">
<path d="M2117.43 89H122.428V649H2117.43V89Z" fill="white"/>
</mask>
<g mask="url(#mask0_663_126)">
<path d="M122.428 593.38L132.606 642.19L142.785 597.48L152.963 597.5L163.142 593.28L173.321 618.62L183.499 595.56L193.678 600.53L203.856 601.3L214.035 607.2L224.213 631.45L234.392 626.16L244.571 562.49L254.749 629.72L264.928 633.49L275.106 600.35L285.285 566.57L295.463 574.75L305.642 576.24L315.821 553.82L325.999 485.18L336.178 504.04L346.356 501.74L356.535 433.29L366.713 446.57L376.892 461.69L387.071 427.86L397.249 469.18L407.428 465.55L417.606 486.78L427.785 451.61L437.963 436.03L448.142 463.84L458.321 508.1L468.499 442.9L478.678 438.3L488.856 376.5L499.035 402.48L509.213 415.62L519.392 430.97L529.571 495.51L539.749 530.3L549.928 564.3L560.106 543.23L570.285 523.82L580.463 539.05L590.642 594.08L600.821 594.82L610.999 581.16L621.178 566.16L631.356 572.82L641.535 528.88L651.713 531.58L661.892 537.58L672.071 592.48L682.249 569.03L692.428 548.1L702.606 507.53L712.785 490.4L722.963 482L733.142 494.08L743.321 454.43L753.499 402.93L763.678 362.39L773.856 407.5L784.035 368.42L794.213 418.33L804.392 358.64L814.571 403.16L824.749 371.89L834.928 314.58L845.106 327.9L855.285 311.55L865.463 331.82L875.642 296.77L885.821 239.97L895.999 250.84L906.178 230.21L916.356 221.97L926.535 282.65L936.713 335.2L946.892 392.99L957.071 402.63L967.249 457.1L977.428 398.39L987.606 332.36L997.785 346.09L1007.96 317.82L1018.14 329.67L1028.32 342.91L1038.5 312.54L1048.68 313.76L1058.86 264.25L1069.03 225.84L1079.21 194.06L1089.39 250.52L1099.57 249.82L1109.75 272.89L1119.93 314.04L1130.11 301L1140.28 348.79L1150.46 354.11L1160.64 388.42L1170.82 389.9L1181 360.97L1191.18 367.61L1201.36 428.86L1211.53 385.47L1221.71 369.28L1231.89 413.41L1242.07 442.95L1252.25 425.59L1262.43 425.42L1272.61 422.88L1282.78 404.12L1292.96 341.39L1303.14 298.69L1313.32 278.22L1323.5 210.1L1333.68 225.93L1343.86 195.47L1354.03 161.98L1364.21 136.65L1374.39 143.95L1384.57 107.05L1394.75 175.55L1404.93 110.72L1415.11 144.02L1425.28 168.05L1435.46 164.64L1445.64 124.27L1455.82 98.9399L1466 131.35L1476.18 166.69L1486.36 121.17L1496.53 170.49L1506.71 108.1L1516.89 166.62L1527.07 229.24L1537.25 247.9L1547.43 186.46L1557.61 174.41L1567.78 231.99L1577.96 235.08L1588.14 293.56L1598.32 293.7L1608.5 308.01L1618.68 362.56L1628.86 332.19L1639.03 266.05L1649.21 238.75L1659.39 301.28L1669.57 272.71L1679.75 308.75L1689.93 341.78L1700.11 379.22L1710.28 312.57L1720.46 302.89L1730.64 297.45L1740.82 276.26L1751 307.1L1761.18 278.31L1771.36 276.28L1781.53 221.08L1791.71 207.86L1801.89 245.45L1812.07 293.42L1822.25 331.18L1832.43 353.77L1842.61 360.66L1852.78 384.08L1862.96 441.21L1873.14 397.29L1883.32 435.02L1893.5 492.2L1903.68 461.9L1913.86 495.7L1924.03 550.36L1934.21 574.25L1944.39 583.65L1954.57 547.65L1964.75 512.75L1974.93 505.51L1985.11 445.73L1995.28 480.17L2005.46 416.33L2015.64 369.63L2025.82 414.75L2036 357.03L2046.18 344.39L2056.36 302.37L2066.53 313.58L2076.71 262.62L2086.89 328.27L2097.07 317.16L2107.25 311.01L2117.43 243.55" stroke="#553191" stroke-width="2"/>
<path d="M122.428 593.38L132.606 642.19L142.785 597.48L152.963 597.5L163.142 593.28L173.321 618.62L183.499 595.56L193.678 600.53L203.856 601.3L214.035 607.2L224.213 631.45L234.392 626.16L244.571 562.49L254.749 629.72L264.928 633.49L275.106 600.35L285.285 566.57L295.463 574.75L305.642 576.24L315.821 553.82L325.999 485.18L336.178 504.04L346.356 501.74L356.535 433.29L366.713 446.57L376.892 461.69L387.071 427.86L397.249 469.18L407.428 465.55L417.606 486.78L427.785 451.61L437.963 436.03L448.142 463.84L458.321 508.1L468.499 442.9L478.678 438.3L488.856 376.5L499.035 402.48L509.213 415.62L519.392 430.97L529.571 495.51L539.749 530.3L549.928 564.3L560.106 543.23L570.285 523.82L580.463 539.05L590.642 594.08L600.821 594.82L610.999 581.16L621.178 566.16L631.356 572.82L641.535 528.88L651.713 531.58L661.892 537.58L672.071 592.48L682.249 569.03L692.428 548.1L702.606 507.53L712.785 490.4L722.963 482L733.142 494.08L743.321 454.43L753.499 402.93L763.678 362.39L773.856 407.5L784.035 368.42L794.213 418.33L804.392 358.64L814.571 403.16L824.749 371.89L834.928 314.58L845.106 327.9L855.285 311.55L865.463 331.82L875.642 296.77L885.821 239.97L895.999 250.84L906.178 230.21L916.356 221.97L926.535 282.65L936.713 335.2L946.892 392.99L957.071 402.63L967.249 457.1L977.428 398.39L987.606 332.36L997.785 346.09L1007.96 317.82L1018.14 329.67L1028.32 342.91L1038.5 312.54L1048.68 313.76L1058.86 264.25L1069.03 225.84L1079.21 194.06L1089.39 250.52L1099.57 249.82L1109.75 272.89L1119.93 314.04L1130.11 301L1140.28 348.79L1150.46 354.11L1160.64 388.42L1170.82 389.9L1181 360.97L1191.18 367.61L1201.36 428.86L1211.53 385.47L1221.71 369.28L1231.89 413.41L1242.07 442.95L1252.25 425.59L1262.43 425.42L1272.61 422.88L1282.78 404.12L1292.96 341.39L1303.14 298.69L1313.32 278.22L1323.5 210.1L1333.68 225.93L1343.86 195.47L1354.03 161.98L1364.21 136.65L1374.39 143.95L1384.57 107.05L1394.75 175.55L1404.93 110.72L1415.11 144.02L1425.28 168.05L1435.46 164.64L1445.64 124.27L1455.82 98.9399L1466 131.35L1476.18 166.69L1486.36 121.17L1496.53 170.49L1506.71 108.1L1516.89 166.62L1527.07 229.24L1537.25 247.9L1547.43 186.46L1557.61 174.41L1567.78 231.99L1577.96 235.08L1588.14 293.56L1598.32 293.7L1608.5 308.01L1618.68 362.56L1628.86 332.19L1639.03 266.05L1649.21 238.75L1659.39 301.28L1669.57 272.71L1679.75 308.75L1689.93 341.78L1700.11 379.22L1710.28 312.57L1720.46 302.89L1730.64 297.45L1740.82 276.26L1751 307.1L1761.18 278.31L1771.36 276.28L1781.53 221.08L1791.71 207.86L1801.89 245.45L1812.07 293.42L1822.25 331.18L1832.43 353.77L1842.61 360.66L1852.78 384.08L1862.96 441.21L1873.14 397.29L1883.32 435.02L1893.5 492.2L1903.68 461.9L1913.86 495.7L1924.03 550.36L1934.21 574.25L1944.39 583.65L1954.57 547.65L1964.75 512.75L1974.93 505.51L1985.11 445.73L1995.28 480.17L2005.46 416.33L2015.64 369.63L2025.82 414.75L2036 357.03L2046.18 344.39L2056.36 302.37L2066.53 313.58L2076.71 262.62L2086.89 328.27L2097.07 317.16L2107.25 311.01L2117.43 243.55V649H122.428V593.38Z" fill="url(#paint0_linear_663_126)"/>
</g>
</g>
<path d="M56.1855 33.4359L782.262 646H929.612L203.536 33.4359H56.1855Z" fill="url(#paint1_linear_663_126)"/>
<path d="M548.637 33.4359L1274.71 646H1841.69L1115.62 33.4359H548.637Z" fill="url(#paint2_linear_663_126)"/>
<path d="M954.602 33.4359L1680.68 646H1829.63L1103.55 33.4359H954.602Z" fill="url(#paint3_linear_663_126)"/>
<path d="M2084.93 33.4359L1358.85 646H1145.84L1871.91 33.4359H2084.93Z" fill="url(#paint4_linear_663_126)"/>
<path d="M1432.41 33.436L2115.89 610.063V33.436H1432.41Z" fill="url(#paint5_linear_663_126)"/>
<path d="M946.804 -0.000131607L220.728 612.564H28.5312L754.607 -0.000131607H946.804Z" fill="url(#paint6_linear_663_126)"/>
<path d="M1192.92 33.4359L466.846 646H0.769531L726.846 33.4359H1192.92Z" fill="url(#paint7_linear_663_126)"/>
<defs>
<linearGradient id="paint0_linear_663_126" x1="99872.4" y1="98.9399" x2="99872.4" y2="55104.9" gradientUnits="userSpaceOnUse">
<stop stop-color="#51426A" stop-opacity="0.65"/>
<stop offset="0.8" stop-color="#508DCC" stop-opacity="0"/>
</linearGradient>
<linearGradient id="paint1_linear_663_126" x1="56.1855" y1="-60610.4" x2="57650" y2="21509.9" gradientUnits="userSpaceOnUse">
<stop stop-color="#424A5B"/>
<stop offset="0.66" stop-color="#424A5B" stop-opacity="0"/>
</linearGradient>
<linearGradient id="paint2_linear_663_126" x1="548.637" y1="-60610.4" x2="47949.3" y2="39447.1" gradientUnits="userSpaceOnUse">
<stop stop-color="#424A5B"/>
<stop offset="0.66" stop-color="#424A5B" stop-opacity="0"/>
</linearGradient>
<linearGradient id="paint3_linear_663_126" x1="954.602" y1="-60610.4" x2="58512.4" y2="21609.1" gradientUnits="userSpaceOnUse">
<stop stop-color="#424A5B"/>
<stop offset="0.66" stop-color="#424A5B" stop-opacity="0"/>
</linearGradient>
<linearGradient id="paint4_linear_663_126" x1="95055.2" y1="-60610.4" x2="38994.2" y2="25334.2" gradientUnits="userSpaceOnUse">
<stop stop-color="#424A5B"/>
<stop offset="0.66" stop-color="#424A5B" stop-opacity="0"/>
</linearGradient>
<linearGradient id="paint5_linear_663_126" x1="1432.41" y1="-57052.6" x2="58271.8" y2="10319.4" gradientUnits="userSpaceOnUse">
<stop stop-color="#7A73A3"/>
<stop offset="0.66" stop-color="#424A5B" stop-opacity="0"/>
</linearGradient>
<linearGradient id="paint6_linear_663_126" x1="91855.8" y1="-60643.8" x2="35297.8" y2="24140.1" gradientUnits="userSpaceOnUse">
<stop stop-color="#994787"/>
<stop offset="0.66" stop-color="#424A5B" stop-opacity="0"/>
<stop offset="0.985688" stop-color="#424A5B" stop-opacity="0"/>
</linearGradient>
<linearGradient id="paint7_linear_663_126" x1="119216" y1="-60610.4" x2="69414.1" y2="36312.6" gradientUnits="userSpaceOnUse">
<stop stop-color="#AA7AB6"/>
<stop offset="0.66" stop-color="#424A5B" stop-opacity="0"/>
</linearGradient>
<clipPath id="clip0_663_126">
<rect width="1995" height="560" fill="white" transform="translate(156 111)"/>
</clipPath>
</defs>
</svg>
