<svg width="1995" height="560" viewBox="0 0 1995 560" fill="none" xmlns="http://www.w3.org/2000/svg">
<g clip-path="url(#clip0_588_139)">
<mask id="mask0_588_139" style="mask-type:luminance" maskUnits="userSpaceOnUse" x="-33" y="0" width="1996" height="560">
<path d="M1962.43 0H-32.5723V560H1962.43V0Z" fill="white"/>
</mask>
<g mask="url(#mask0_588_139)">
<path d="M-32.5723 504.38L-22.3937 553.19L-12.2151 508.48L-2.03655 508.5L8.14202 504.28L18.3206 529.62L28.4992 506.56L38.6777 511.53L48.8563 512.3L59.0349 518.2L69.2135 542.45L79.392 537.16L89.5706 473.49L99.7492 540.72L109.928 544.49L120.106 511.35L130.285 477.57L140.463 485.75L150.642 487.24L160.821 464.82L170.999 396.18L181.178 415.04L191.356 412.74L201.535 344.29L211.713 357.57L221.892 372.69L232.071 338.86L242.249 380.18L252.428 376.55L262.606 397.78L272.785 362.61L282.963 347.03L293.142 374.84L303.321 419.1L313.499 353.9L323.678 349.3L333.856 287.5L344.035 313.48L354.213 326.62L364.392 341.97L374.571 406.51L384.749 441.3L394.928 475.3L405.106 454.23L415.285 434.82L425.463 450.05L435.642 505.08L445.821 505.82L455.999 492.16L466.178 477.16L476.356 483.82L486.535 439.88L496.713 442.58L506.892 448.58L517.071 503.48L527.249 480.03L537.428 459.1L547.606 418.53L557.785 401.4L567.963 393L578.142 405.08L588.321 365.43L598.499 313.93L608.678 273.39L618.856 318.5L629.035 279.42L639.213 329.33L649.392 269.64L659.571 314.16L669.749 282.89L679.928 225.58L690.106 238.9L700.285 222.55L710.463 242.82L720.642 207.77L730.821 150.97L740.999 161.84L751.178 141.21L761.356 132.97L771.535 193.65L781.713 246.2L791.892 303.99L802.071 313.63L812.249 368.1L822.428 309.39L832.606 243.36L842.785 257.09L852.963 228.82L863.142 240.67L873.321 253.91L883.499 223.54L893.678 224.76L903.856 175.25L914.035 136.84L924.213 105.06L934.392 161.52L944.571 160.82L954.749 183.89L964.928 225.04L975.106 212L985.285 259.79L995.464 265.11L1005.64 299.42L1015.82 300.9L1026 271.97L1036.18 278.61L1046.36 339.86L1056.53 296.47L1066.71 280.28L1076.89 324.41L1087.07 353.95L1097.25 336.59L1107.43 336.42L1117.61 333.88L1127.78 315.12L1137.96 252.39L1148.14 209.69L1158.32 189.22L1168.5 121.1L1178.68 136.93L1188.86 106.47L1199.03 72.9799L1209.21 47.6499L1219.39 54.9499L1229.57 18.0499L1239.75 86.5499L1249.93 21.7199L1260.11 55.0199L1270.28 79.0499L1280.46 75.6399L1290.64 35.2699L1300.82 9.93994L1311 42.3499L1321.18 77.6899L1331.36 32.1699L1341.53 81.4899L1351.71 19.0999L1361.89 77.6199L1372.07 140.24L1382.25 158.9L1392.43 97.4599L1402.61 85.4099L1412.78 142.99L1422.96 146.08L1433.14 204.56L1443.32 204.7L1453.5 219.01L1463.68 273.56L1473.86 243.19L1484.03 177.05L1494.21 149.75L1504.39 212.28L1514.57 183.71L1524.75 219.75L1534.93 252.78L1545.11 290.22L1555.28 223.57L1565.46 213.89L1575.64 208.45L1585.82 187.26L1596 218.1L1606.18 189.31L1616.36 187.28L1626.53 132.08L1636.71 118.86L1646.89 156.45L1657.07 204.42L1667.25 242.18L1677.43 264.77L1687.61 271.66L1697.78 295.08L1707.96 352.21L1718.14 308.29L1728.32 346.02L1738.5 403.2L1748.68 372.9L1758.86 406.7L1769.03 461.36L1779.21 485.25L1789.39 494.65L1799.57 458.65L1809.75 423.75L1819.93 416.51L1830.11 356.73L1840.28 391.17L1850.46 327.33L1860.64 280.63L1870.82 325.75L1881 268.03L1891.18 255.39L1901.36 213.37L1911.53 224.58L1921.71 173.62L1931.89 239.27L1942.07 228.16L1952.25 222.01L1962.43 154.55" stroke="#553191" stroke-width="2"/>
<path d="M-32.5723 504.38L-22.3937 553.19L-12.2151 508.48L-2.03655 508.5L8.14202 504.28L18.3206 529.62L28.4992 506.56L38.6777 511.53L48.8563 512.3L59.0349 518.2L69.2135 542.45L79.392 537.16L89.5706 473.49L99.7492 540.72L109.928 544.49L120.106 511.35L130.285 477.57L140.463 485.75L150.642 487.24L160.821 464.82L170.999 396.18L181.178 415.04L191.356 412.74L201.535 344.29L211.713 357.57L221.892 372.69L232.071 338.86L242.249 380.18L252.428 376.55L262.606 397.78L272.785 362.61L282.963 347.03L293.142 374.84L303.321 419.1L313.499 353.9L323.678 349.3L333.856 287.5L344.035 313.48L354.213 326.62L364.392 341.97L374.571 406.51L384.749 441.3L394.928 475.3L405.106 454.23L415.285 434.82L425.463 450.05L435.642 505.08L445.821 505.82L455.999 492.16L466.178 477.16L476.356 483.82L486.535 439.88L496.714 442.58L506.892 448.58L517.071 503.48L527.249 480.03L537.428 459.1L547.606 418.53L557.785 401.4L567.964 393L578.142 405.08L588.321 365.43L598.499 313.93L608.678 273.39L618.856 318.5L629.035 279.42L639.214 329.33L649.392 269.64L659.571 314.16L669.749 282.89L679.928 225.58L690.106 238.9L700.285 222.55L710.464 242.82L720.642 207.77L730.821 150.97L740.999 161.84L751.178 141.21L761.356 132.97L771.535 193.65L781.714 246.2L791.892 303.99L802.071 313.63L812.249 368.1L822.428 309.39L832.606 243.36L842.785 257.09L852.964 228.82L863.142 240.67L873.321 253.91L883.499 223.54L893.678 224.76L903.856 175.25L914.035 136.84L924.214 105.06L934.392 161.52L944.571 160.82L954.749 183.89L964.928 225.04L975.106 212L985.285 259.79L995.464 265.11L1005.64 299.42L1015.82 300.9L1026 271.97L1036.18 278.61L1046.36 339.86L1056.53 296.47L1066.71 280.28L1076.89 324.41L1087.07 353.95L1097.25 336.59L1107.43 336.42L1117.61 333.88L1127.78 315.12L1137.96 252.39L1148.14 209.69L1158.32 189.22L1168.5 121.1L1178.68 136.93L1188.86 106.47L1199.03 72.9799L1209.21 47.6499L1219.39 54.9499L1229.57 18.0499L1239.75 86.5499L1249.93 21.7199L1260.11 55.0199L1270.28 79.0499L1280.46 75.6399L1290.64 35.2699L1300.82 9.93994L1311 42.3499L1321.18 77.6899L1331.36 32.1699L1341.53 81.4899L1351.71 19.0999L1361.89 77.6199L1372.07 140.24L1382.25 158.9L1392.43 97.4599L1402.61 85.4099L1412.78 142.99L1422.96 146.08L1433.14 204.56L1443.32 204.7L1453.5 219.01L1463.68 273.56L1473.86 243.19L1484.03 177.05L1494.21 149.75L1504.39 212.28L1514.57 183.71L1524.75 219.75L1534.93 252.78L1545.11 290.22L1555.28 223.57L1565.46 213.89L1575.64 208.45L1585.82 187.26L1596 218.1L1606.18 189.31L1616.36 187.28L1626.53 132.08L1636.71 118.86L1646.89 156.45L1657.07 204.42L1667.25 242.18L1677.43 264.77L1687.61 271.66L1697.78 295.08L1707.96 352.21L1718.14 308.29L1728.32 346.02L1738.5 403.2L1748.68 372.9L1758.86 406.7L1769.03 461.36L1779.21 485.25L1789.39 494.65L1799.57 458.65L1809.75 423.75L1819.93 416.51L1830.11 356.73L1840.28 391.17L1850.46 327.33L1860.64 280.63L1870.82 325.75L1881 268.03L1891.18 255.39L1901.36 213.37L1911.54 224.58L1921.71 173.62L1931.89 239.27L1942.07 228.16L1952.25 222.01L1962.43 154.55V560H-32.5723V504.38Z" fill="url(#paint0_linear_588_139)"/>
</g>
</g>
<defs>
<linearGradient id="paint0_linear_588_139" x1="99717.4" y1="9.93994" x2="99717.4" y2="55015.9" gradientUnits="userSpaceOnUse">
<stop stop-color="#51426A" stop-opacity="0.65"/>
<stop offset="0.8" stop-color="#508DCC" stop-opacity="0"/>
</linearGradient>
<clipPath id="clip0_588_139">
<rect width="1995" height="560" fill="white"/>
</clipPath>
</defs>
</svg>
