<svg width="172" height="115" viewBox="0 0 172 115" fill="none" xmlns="http://www.w3.org/2000/svg">
<path d="M8.00332 0.000184417C3.58465 0.000184417 0 3.81459 0 8.52098V106.479C0 111.185 3.58516 115 8.00332 115H163.997C168.415 115 172 111.186 172 106.479V8.52079C172 3.81514 168.415 0 163.997 0H8.00315L8.00332 0.000184417ZM56.3998 13.843C66.2177 13.843 75.2346 17.4796 82.3126 23.5541C76.3576 29.227 71.9159 36.6802 69.7244 45.1281H73.1591C75.1818 38.1589 78.8562 31.954 83.6994 27.0334C88.5426 31.954 92.2168 38.1589 94.2397 45.1281H97.7282C95.5063 36.7247 91.0584 29.316 85.1077 23.6801C92.1993 17.5285 101.252 13.8428 111.112 13.8428C133.866 13.8428 152.311 33.4829 152.311 57.7118C152.311 81.9407 133.866 101.581 111.112 101.581C101.088 101.581 91.8961 97.7715 84.7529 91.4346C91.1427 85.5161 95.8534 77.582 98.0077 68.556H94.6481C92.7353 76.1317 88.8852 82.8696 83.6992 88.1386C78.5134 82.8696 74.6687 76.1317 72.7558 68.556H69.5576C71.7244 77.4513 76.3736 85.2744 82.6672 91.1372C75.5372 97.3955 66.3816 101.157 56.3996 101.157C33.6457 101.157 15.2005 81.6116 15.2005 57.5001C15.2005 33.3886 33.6457 13.843 56.3998 13.843ZM108.021 44.6816C103.071 44.6816 98.2549 49.2893 98.2549 57.9407C98.2549 63.6775 100.856 67.463 105.973 67.463C107.42 67.4635 109.725 66.8336 109.725 66.8336L110.488 61.8206C110.488 61.8206 108.385 62.9536 106.941 62.9536C103.899 62.9536 102.679 60.463 102.679 57.7863C102.679 52.3562 105.296 49.3682 108.209 49.3682C110.394 49.3682 112.149 50.6845 112.149 50.6845L112.848 45.8089C112.848 45.8089 110.25 44.6816 108.021 44.6816ZM149.64 45.1052L145.335 45.1166L144.41 51.1482C144.41 51.1482 142.792 48.8075 140.261 48.8075C136.325 48.8075 133.047 53.7848 133.047 59.5087C133.047 63.2036 134.792 66.8277 138.369 66.8277C140.941 66.8277 142.368 64.9452 142.368 64.9452L142.179 66.553H146.361L149.64 45.1052ZM26.3266 45.168L22.8975 66.6675H27.0308L29.6431 50.4558L30.0301 66.6675H32.9863L38.5011 50.4558L36.0555 66.6675H40.4468L43.8331 45.168H37.0391L32.809 58.3584L32.5886 45.1682H26.3268L26.3266 45.168ZM69.5094 46.5643C69.416 46.6641 67.0101 61.435 67.0101 63.234C67.0101 65.8976 68.4124 67.0874 70.3856 67.0682C71.7994 67.0553 72.8944 66.6772 73.4009 66.5188C73.4539 66.5036 73.5568 66.473 73.5568 66.473L74.0889 62.6275C73.7996 62.6275 73.3734 62.7591 72.9978 62.7591C71.5246 62.7591 71.3614 61.9247 71.4551 61.3055L72.6431 53.4601H74.8844L75.4273 49.208H73.3149L73.7449 46.5643H69.5094ZM119.47 48.7275C116.585 48.7275 114.375 49.7404 114.375 49.7404L113.762 53.689C113.762 53.689 115.587 52.882 118.347 52.882C119.913 52.882 121.061 53.0728 121.061 54.4614C121.061 55.3048 120.921 55.6174 120.921 55.6174C120.921 55.6174 119.682 55.503 119.11 55.503C115.472 55.503 111.649 57.2005 111.649 62.307C111.649 66.3305 114.159 67.2513 115.713 67.2513C118.681 67.2513 119.961 65.1518 120.029 65.1454L119.889 66.8966H123.593L125.248 54.2612C125.249 48.8998 120.96 48.7273 119.47 48.7273V48.7275ZM49.9981 48.7504C47.1027 48.7504 44.8811 49.7632 44.8811 49.7632L44.2685 53.7119C44.2685 53.7119 46.1003 52.9049 48.8695 52.9049C50.4419 52.9049 51.5946 53.0964 51.5946 54.4843C51.5946 55.3274 51.4548 55.6403 51.4548 55.6403C51.4548 55.6403 50.2124 55.5259 49.6381 55.5259C45.986 55.5259 42.1508 57.2206 42.1508 62.3242C42.1508 66.3456 44.6651 67.2685 46.225 67.2685C49.2042 67.2685 50.4888 65.1688 50.5573 65.1626L50.4174 66.9136H54.1369L55.7978 54.2841C55.7978 48.9258 51.4931 48.7502 49.9981 48.7502V48.7504ZM63.1346 48.7504C60.0254 48.7504 56.8674 50.0866 56.8674 54.6504C56.8674 59.8213 62.1296 59.2989 62.1296 61.4771C62.1296 62.9311 60.6611 63.051 59.5281 63.051C57.5673 63.051 55.8041 62.3297 55.7978 62.3643L55.2334 66.3128C55.3349 66.3463 56.4268 66.8678 59.9528 66.8678C60.8995 66.8678 66.3113 67.1238 66.3113 61.1224C66.3113 55.5118 61.3018 56.6239 61.3018 54.3698C61.3018 53.2477 62.1152 52.8935 63.6076 52.8935C64.2003 52.8935 66.4834 53.0938 66.4834 53.0938L67.0101 49.1051C67.0101 49.1057 65.5368 48.7504 63.1346 48.7504ZM82.5706 48.7504C78.2499 48.7513 75.0511 53.6978 75.0511 59.2855C75.0511 65.7348 79.059 67.2685 82.4739 67.2685C85.626 67.2685 87.0157 66.5188 87.0157 66.5188L87.7682 62.1182C87.7682 62.1182 85.3704 63.2398 83.2049 63.2398C78.5908 63.2398 79.3994 59.5831 79.3994 59.5831H88.1337C88.1337 59.5831 88.6982 56.6279 88.6982 55.4228C88.6982 52.4159 87.2885 48.7504 82.5706 48.7504ZM98.2174 48.9392C96.2709 48.9392 94.8256 51.7261 94.8256 51.7261L95.2126 49.1681H91.1706L88.4564 66.8279H92.9229C94.188 59.2866 94.419 53.1632 97.4379 54.2841C97.9663 51.3652 98.479 50.2375 99.0557 49.0022C99.0557 49.0022 98.785 48.9392 98.2174 48.9392ZM134.407 48.9392C132.461 48.9392 131.016 51.7261 131.016 51.7261L131.403 49.1681H127.361L124.646 66.8279H129.107C130.373 59.2866 130.61 53.1632 133.628 54.2841C134.157 51.3652 134.669 50.2375 135.246 49.0022C135.246 49.0022 134.974 48.9392 134.407 48.9392ZM82.5491 52.7333C85.003 52.7333 84.5541 55.6823 84.5541 55.9207H79.7219C79.7219 55.6163 80.1789 52.7333 82.5491 52.7333ZM140.938 53.0766C142.5 53.0761 143.303 54.1993 143.303 56.842C143.303 59.2397 142.167 62.4444 139.814 62.4444C138.253 62.4444 137.519 61.0715 137.519 58.9193C137.519 55.4001 139.032 53.0766 140.938 53.0766ZM119.475 59.0852C120.112 59.0861 120.244 59.152 120.352 59.1826C120.336 59.1799 120.333 59.183 120.395 59.194C120.475 59.9805 119.948 63.6691 117.401 63.6691C116.087 63.6691 115.751 62.557 115.751 61.9007C115.751 60.621 116.376 59.0852 119.475 59.0852ZM50.0036 59.1024C50.7272 59.1033 50.8062 59.1894 50.9281 59.2112C51.009 59.9973 50.4799 63.6804 47.9235 63.6804C46.6047 63.6804 46.2626 62.5736 46.2626 61.9179C46.2626 60.639 46.8921 59.1024 50.0036 59.1024Z" fill="#998ACB"/>
</svg>
