<svg width="172" height="115" viewBox="0 0 172 115" fill="none" xmlns="http://www.w3.org/2000/svg">
<path d="M55.6312 58.0647C55.6312 61.1964 52.7347 63.5837 49.0618 63.5837C46.3146 63.5837 44.284 62.2489 44.284 59.7333C44.284 56.6016 47.1208 54.0859 50.7639 54.0859C53.541 54.0859 55.6312 55.5491 55.6312 58.0647ZM24.0382 45.615H22.6347C22.1868 45.615 21.7389 45.8717 21.6792 46.308L20.3951 53.1618L22.8437 53.0848C26.1285 53.0848 28.6667 52.6998 29.2639 49.4397C29.9507 46 27.4125 45.615 24.0382 45.615ZM108.844 45.615H107.5C106.962 45.615 106.604 45.8717 106.544 46.308L105.29 53.1618L107.679 53.0848C111.561 53.0848 114.249 52.3147 114.249 48.4643C114.219 45.7433 111.382 45.615 108.844 45.615ZM172 12.3214V102.679C172 109.481 165.58 115 157.667 115H14.3333C6.42014 115 0 109.481 0 102.679V12.3214C0 5.51897 6.42014 0 14.3333 0H157.667C165.58 0 172 5.51897 172 12.3214ZM38.3118 47.0781C38.3118 41.6875 33.4743 39.8906 27.95 39.8906H16.0056C15.259 39.8906 14.5125 40.404 14.4528 41.0971L9.55556 67.3058C9.46597 67.8192 9.91389 68.3326 10.5111 68.3326H16.1847C16.991 68.3326 17.7375 67.5882 17.8271 66.8694L19.1708 60.0413C19.4694 58.1931 23.1125 58.8348 24.5458 58.8348C33.0861 58.8348 38.3118 54.471 38.3118 47.0781ZM63.4549 49.3371H57.7812C56.6465 49.3371 56.5868 50.7489 56.5271 51.442C54.7951 49.26 52.2868 48.875 49.45 48.875C42.134 48.875 36.55 54.394 36.55 60.4777C36.55 65.4833 40.1931 68.7433 46.016 68.7433C48.7035 68.7433 52.0479 67.4855 53.9292 65.6886C53.7799 66.0737 53.6306 66.8951 53.6306 67.2801C53.6306 67.8705 53.9292 68.3069 54.5861 68.3069H59.7222C60.5285 68.3069 61.2153 67.5625 61.3646 66.8437L64.4104 50.3382C64.5 49.8504 64.0521 49.3371 63.4549 49.3371ZM75.5486 74.4676L94.5701 50.6975C94.7194 50.5692 94.7194 50.4408 94.7194 50.2612C94.7194 49.8248 94.2715 49.3627 93.7639 49.3627H88.0305C87.5229 49.3627 86.9854 49.6194 86.6868 50.0045L78.7736 60.0156L75.4889 50.3895C75.25 49.8248 74.5931 49.3627 73.8465 49.3627H68.2625C67.7549 49.3627 67.3069 49.8248 67.3069 50.2612C67.3069 50.5692 73.1299 64.8415 73.6375 66.202C72.8313 67.1775 67.516 73.5435 67.516 74.3136C67.516 74.7757 67.9639 75.135 68.4715 75.135H74.2049C74.7424 75.1094 75.25 74.8527 75.5486 74.4676ZM123.117 47.0781C123.117 41.6875 118.28 39.8906 112.756 39.8906H100.901C100.094 39.8906 99.3479 40.404 99.2583 41.0971L94.4208 67.2801C94.3611 67.7935 94.809 68.3069 95.3764 68.3069H101.498C102.095 68.3069 102.543 67.9219 102.692 67.4855L104.036 60.0413C104.335 58.1931 107.978 58.8348 109.411 58.8348C117.892 58.8348 123.117 54.471 123.117 47.0781ZM148.26 49.3371H142.587C141.452 49.3371 141.392 50.7489 141.303 51.442C139.66 49.26 137.122 48.875 134.226 48.875C126.91 48.875 121.326 54.394 121.326 60.4777C121.326 65.4833 124.969 68.7433 130.792 68.7433C133.569 68.7433 136.913 67.4855 138.705 65.6886C138.615 66.0737 138.406 66.8951 138.406 67.2801C138.406 67.8705 138.705 68.3069 139.362 68.3069H144.528C145.334 68.3069 146.021 67.5625 146.17 66.8437L149.216 50.3382C149.306 49.8504 148.858 49.3371 148.26 49.3371ZM162.444 40.7891C162.444 40.2757 161.997 39.8906 161.489 39.8906H155.965C155.517 39.8906 155.069 40.1987 155.009 40.5837L150.172 67.2801L150.082 67.4085C150.082 67.8705 150.53 68.3069 151.127 68.3069H156.054C156.801 68.3069 157.547 67.5625 157.607 66.8437L162.444 40.8661V40.7891ZM135.569 54.0859C131.926 54.0859 129.09 56.5759 129.09 59.7333C129.09 62.2232 131.18 63.5837 133.927 63.5837C137.51 63.5837 140.407 61.2221 140.407 58.0647C140.437 55.5491 138.347 54.0859 135.569 54.0859Z" fill="#998ACB"/>
</svg>
