<svg width="16" height="20" viewBox="0 0 16 20" fill="none" xmlns="http://www.w3.org/2000/svg">
<path d="M0 8.95V4.225C0 3.80833 0.121 3.43333 0.363 3.1C0.605 2.76667 0.917334 2.525 1.3 2.375L7.3 0.125C7.53333 0.0416667 7.76667 0 8 0C8.23333 0 8.46667 0.0416667 8.7 0.125L14.7 2.375C15.0833 2.525 15.396 2.76667 15.638 3.1C15.88 3.43333 16.0007 3.80833 16 4.225V8.95C16 11.2833 15.3333 13.4627 14 15.488C12.6667 17.5133 10.875 18.9007 8.625 19.65C8.525 19.6833 8.425 19.7083 8.325 19.725C8.225 19.7417 8.11667 19.75 8 19.75C7.88333 19.75 7.775 19.7417 7.675 19.725C7.575 19.7083 7.475 19.6833 7.375 19.65C5.125 18.9 3.33333 17.5123 2 15.487C0.666667 13.4617 0 11.2827 0 8.95ZM6 13.85H10C10.2833 13.85 10.521 13.754 10.713 13.562C10.905 13.37 11.0007 13.1327 11 12.85V9.85C11 9.56667 10.904 9.329 10.712 9.137C10.52 8.945 10.2827 8.84933 10 8.85V7.85C10 7.3 9.804 6.829 9.412 6.437C9.02 6.045 8.54933 5.84933 8 5.85C7.45 5.85 6.979 6.046 6.587 6.438C6.195 6.83 5.99933 7.30067 6 7.85V8.85C5.71667 8.85 5.479 8.946 5.287 9.138C5.095 9.33 4.99933 9.56733 5 9.85V12.85C5 13.1333 5.096 13.371 5.288 13.563C5.48 13.755 5.71733 13.8507 6 13.85ZM7 8.85V7.85C7 7.56667 7.096 7.329 7.288 7.137C7.48 6.945 7.71733 6.84933 8 6.85C8.28333 6.85 8.521 6.946 8.713 7.138C8.905 7.33 9.00067 7.56733 9 7.85V8.85H7Z" fill="#998ACB"/>
</svg>
