<svg width="512" height="512" viewBox="0 0 512 512" fill="none" xmlns="http://www.w3.org/2000/svg">
<g clip-path="url(#clip0_433_182)">
<path fill-rule="evenodd" clip-rule="evenodd" d="M449.446 0C483.971 0 512 28.03 512 62.554V449.446C512 483.97 483.97 512 449.446 512H62.554C28.03 512 0 483.97 0 449.446V62.554C0 28.03 28.029 0 62.554 0H449.446ZM160.461 423.278V197.561H85.421V423.278H160.461ZM431 423.278V293.839C431 224.506 393.982 192.253 344.619 192.253C304.815 192.253 286.985 214.144 277.002 229.519V197.561H201.981C202.976 218.742 201.981 423.278 201.981 423.278H277.001V297.222C277.001 290.474 277.487 283.73 279.475 278.907C284.889 265.432 297.242 251.473 317.969 251.473C345.104 251.473 355.976 272.18 355.976 302.51V423.278H431ZM123.448 88.722C97.774 88.722 81 105.601 81 127.724C81 149.382 97.264 166.726 122.455 166.726H122.939C149.104 166.726 165.391 149.382 165.391 127.724C164.906 105.632 149.15 88.77 123.448 88.722Z" fill="#998ACB"/>
</g>
<defs>
<clipPath id="clip0_433_182">
<rect width="512" height="512" fill="white"/>
</clipPath>
</defs>
</svg>
