<svg width="512" height="512" viewBox="0 0 512 512" fill="none" xmlns="http://www.w3.org/2000/svg">
<g clip-path="url(#clip0_433_178)">
<path fill-rule="evenodd" clip-rule="evenodd" d="M449.446 0C483.971 0 512 28.03 512 62.554V449.446C512 483.97 483.97 512 449.446 512H342.978V319.085H409.578L422.25 236.464H342.978V182.847C342.978 160.244 354.051 138.211 389.558 138.211H425.6V67.871C425.6 67.871 392.89 62.289 361.618 62.289C296.33 62.289 253.658 101.858 253.658 173.493V236.464H181.085V319.085H253.658V512H62.554C28.03 512 0 483.97 0 449.446V62.554C0 28.03 28.029 0 62.554 0H449.446Z" fill="#998ACB"/>
</g>
<defs>
<clipPath id="clip0_433_178">
<rect width="512" height="512" fill="white"/>
</clipPath>
</defs>
</svg>
