<svg width="172" height="115" viewBox="0 0 172 115" fill="none" xmlns="http://www.w3.org/2000/svg">
<g clip-path="url(#clip0_435_188)">
<path d="M147.439 64.5378H137.137C137.834 62.691 139.476 58.2237 142.064 51.1361L142.288 50.4622C142.487 49.9631 142.736 49.3142 143.035 48.5156C143.333 47.717 143.557 47.0681 143.707 46.569L144.602 50.6868L147.439 64.5378ZM39.6406 59.6712L35.3108 37.5846C34.7633 34.8893 32.897 33.5417 29.7118 33.5417H9.70486L9.55556 34.515C25.0336 38.4581 35.0619 46.8435 39.6406 59.6712ZM53.0035 33.5417L40.9097 66.3346L39.6406 59.6712C38.3466 56.1773 36.2315 52.9454 33.2951 49.9756C30.3588 47.0057 27.099 44.7971 23.5156 43.3496L33.5937 81.5332H46.658L66.1424 33.5417H53.0035ZM63.3802 81.6081H75.7726L83.5365 33.5417H71.1441L63.3802 81.6081ZM120.714 34.7396C117.28 33.3919 113.572 32.7181 109.59 32.7181C103.469 32.7181 98.467 34.1905 94.5851 37.1354C90.7031 40.0803 88.7373 43.8987 88.6875 48.5905C88.6377 53.6816 92.2459 58.0241 99.5122 61.6178C101.901 62.7658 103.568 63.7891 104.514 64.6875C105.459 65.5859 105.932 66.5592 105.932 67.6074C105.932 69.1048 105.186 70.2528 103.693 71.0514C102.2 71.85 100.483 72.2493 98.5417 72.2493C94.2616 72.2493 90.3796 71.4258 86.8958 69.7786L85.2535 68.9551L83.5365 79.7363C87.2193 81.4334 91.8229 82.2819 97.3472 82.2819C103.817 82.3318 109.005 80.8594 112.912 77.8646C116.819 74.8698 118.822 70.8767 118.922 65.8854C118.922 60.5946 115.438 56.2522 108.47 52.8581C106.032 51.6102 104.265 50.5621 103.17 49.7135C102.075 48.865 101.528 47.9167 101.528 46.8685C101.528 45.7704 102.137 44.8096 103.357 43.986C104.576 43.1624 106.33 42.7506 108.62 42.7506C112.104 42.7007 115.189 43.2997 117.877 44.5475L118.997 45.1465L120.714 34.7396ZM152.441 33.5417H142.885C139.65 33.5417 137.486 34.8893 136.391 37.5846L118.026 81.6081H131.016L133.628 74.4206H149.455C149.704 75.5187 150.201 77.9145 150.948 81.6081H162.444L152.441 33.5417ZM172 9.58333V105.417C172 108.012 171.054 110.258 169.163 112.155C167.272 114.052 165.032 115 162.444 115H9.55556C6.96759 115 4.72801 114.052 2.83681 112.155C0.945602 110.258 0 108.012 0 105.417V9.58333C0 6.98785 0.945602 4.74175 2.83681 2.84505C4.72801 0.948351 6.96759 0 9.55556 0H162.444C165.032 0 167.272 0.948351 169.163 2.84505C171.054 4.74175 172 6.98785 172 9.58333Z" fill="#998ACB"/>
</g>
<defs>
<clipPath id="clip0_435_188">
<rect width="172" height="115" fill="white"/>
</clipPath>
</defs>
</svg>
